<svg xmlns="http://www.w3.org/2000/svg" fill="none" viewBox="0 0 14 14">
    <path fill="#000000" fill-rule="evenodd"
          d="M10.8584 0.115326C11.0412 0.0391958 11.2372 0 11.4351 0C11.6331 0 11.8291 0.0391957 12.0118 0.115326C12.1942 0.191311 12.3598 0.302589 12.499 0.442761L12.4998 0.443566L13.5564 1.50019L13.5571 1.50085C13.6973 1.64012 13.8087 1.80574 13.8847 1.98818C13.9608 2.17092 14 2.36692 14 2.56488C14 2.76284 13.9608 2.95884 13.8847 3.14157C13.8087 3.32385 13.6975 3.48934 13.5575 3.62853L13.5564 3.62956L7.35278 9.8532C7.28058 9.92564 7.1879 9.97419 7.08724 9.99231L4.08858 10.5321C3.92872 10.5608 3.76484 10.5102 3.64912 10.3962C3.5334 10.2822 3.48027 10.1191 3.50663 9.95883L4.00641 6.92019C4.02342 6.81673 4.07253 6.72123 4.14679 6.64721L10.3715 0.442446C10.5107 0.302421 10.6762 0.191254 10.8584 0.115326ZM0 13C0 12.4477 0.447715 12 1 12H13C13.5523 12 14 12.4477 14 13C14 13.5523 13.5523 14 13 14H1C0.447715 14 0 13.5523 0 13Z"
          clip-rule="evenodd"></path>
</svg>
