<svg xmlns="http://www.w3.org/2000/svg" fill="none" viewBox="0 0 14 14">
    <path fill="#000000" fill-rule="evenodd"
          d="M1.24999 0.25C0.697708 0.25 0.249992 0.697715 0.249992 1.25V7.68667C0.249992 8.23895 0.697707 8.68667 1.24999 8.68667H4.06335V6.31335C4.06335 5.07071 5.07071 4.06335 6.31335 4.06335H8.68666V1.25C8.68666 0.697715 8.23894 0.25 7.68666 0.25H1.24999ZM2.76527 3.74947L2.78051 3.74932C3.33324 3.74146 3.7789 3.29095 3.7789 2.73634C3.7789 2.17684 3.32533 1.72327 2.76582 1.72327L2.76153 1.72331L2.75219 1.72327C2.1999 1.72327 1.75219 2.17098 1.75219 2.72327L1.75221 2.72981L1.75219 2.73639C1.75219 3.2959 2.20576 3.74947 2.76527 3.74947ZM6.31335 5.31335C5.76106 5.31335 5.31335 5.76107 5.31335 6.31335V12.75C5.31335 13.3023 5.76106 13.75 6.31335 13.75H12.75C13.3023 13.75 13.75 13.3023 13.75 12.75V6.31335C13.75 5.76107 13.3023 5.31335 12.75 5.31335H6.31335ZM10.8815 8.97156C11.4337 8.97156 11.8815 8.52384 11.8815 7.97156C11.8815 7.41927 11.4337 6.97156 10.8815 6.97156C10.3292 6.97156 9.88146 7.41927 9.88146 7.97156C9.88146 8.52384 10.3292 8.97156 10.8815 8.97156ZM9.18182 11.0918C9.18182 11.6441 8.7341 12.0918 8.18182 12.0918C7.62953 12.0918 7.18182 11.6441 7.18182 11.0918C7.18182 10.5395 7.62953 10.0918 8.18182 10.0918C8.7341 10.0918 9.18182 10.5395 9.18182 11.0918Z"
          clip-rule="evenodd"></path>
</svg>
