<svg xmlns="http://www.w3.org/2000/svg" viewBox="0 0 24 24">
    <g>
        <path d="M2,17.87a1,1,0,0,0-1,1v1.5a.25.25,0,0,0,.25.25h3.5A.25.25,0,0,0,5,20.37v-1.5a1,1,0,0,0-1-1Z"
              fill="#000000"></path>
        <path d="M8,14.87a1,1,0,0,0-1,1v4.5a.25.25,0,0,0,.25.25h3.5a.25.25,0,0,0,.25-.25v-4.5a1,1,0,0,0-1-1Z"
              fill="#000000"></path>
        <path d="M14,11.37a1,1,0,0,0-1,1v8a.25.25,0,0,0,.25.25h3.5a.25.25,0,0,0,.25-.25v-8a1,1,0,0,0-1-1Z"
              fill="#000000"></path>
        <path d="M19.25,20.62h3.5a.25.25,0,0,0,.25-.25v-12a1,1,0,0,0-1-1H20a1,1,0,0,0-1,1v12A.25.25,0,0,0,19.25,20.62Z"
              fill="#000000"></path>
        <path d="M18.07,4.21l.31.46A.74.74,0,0,0,19,5h0a.74.74,0,0,0,.62-.38l2-3.5a.75.75,0,0,0,0-.79A.72.72,0,0,0,20.91,0l-4,.5a.75.75,0,0,0-.53,1.16l.3.46a.24.24,0,0,1-.07.34L2.45,11.92a1,1,0,0,0-.28,1.39,1,1,0,0,0,.83.44.94.94,0,0,0,.55-.17L17.72,4.14A.25.25,0,0,1,18.07,4.21Z"
              fill="#000000"></path>
        <path d="M1,24H23a1,1,0,0,0,.31-1.95A1.06,1.06,0,0,0,23,22H1a1.06,1.06,0,0,0-.31.05A1,1,0,0,0,1,24Z"
              fill="#000000"></path>
    </g>
</svg>
