<svg xmlns="http://www.w3.org/2000/svg" fill="none" viewBox="0 0 14 14">
    <path fill="#000000" fill-rule="evenodd"
          d="M2.22588 2.76852C1.80101 3.46482 1.3577 4.62726 1.01295 5.9718C0.662566 7.3383 0.427282 8.84073 0.408875 10.1427C0.747097 10.5592 1.66781 11.3608 3.18918 11.7367L4.27706 10.3769C3.75135 10.1875 3.30896 9.94356 3.03121 9.66581C2.83595 9.47055 2.83595 9.15396 3.03121 8.9587C3.22647 8.76344 3.54305 8.76344 3.73831 8.9587C3.94307 9.16346 4.46942 9.43873 5.24672 9.62138C5.72909 9.73473 6.28102 9.80571 6.86184 9.80571C7.44266 9.80571 7.99459 9.73473 8.47696 9.62138C9.25426 9.43873 9.78061 9.16346 9.98537 8.9587C10.1806 8.76344 10.4972 8.76344 10.6925 8.9587C10.8877 9.15396 10.8877 9.47055 10.6925 9.66581C10.4147 9.94355 9.97235 10.1874 9.44666 10.3769L10.5346 11.7367C12.0559 11.3608 12.9766 10.5592 13.3149 10.1427C13.2965 8.84073 13.0612 7.3383 12.7108 5.9718C12.366 4.62726 11.9227 3.46482 11.4979 2.76852L11.4681 2.75941C11.336 2.71979 11.1085 2.66213 10.7535 2.60295C10.0425 2.48445 8.82928 2.36139 6.86187 2.36139C4.89446 2.36139 3.68126 2.48445 2.97026 2.60295C2.61519 2.66213 2.38769 2.71979 2.2556 2.75941L2.22588 2.76852ZM5.42836 6.33311C5.42836 6.91285 4.95838 7.38283 4.37863 7.38283C3.79889 7.38283 3.32891 6.91285 3.32891 6.33311C3.32891 5.75336 3.79889 5.28339 4.37863 5.28339C4.95838 5.28339 5.42836 5.75336 5.42836 6.33311ZM9.28916 7.38283C9.8689 7.38283 10.3389 6.91285 10.3389 6.33311C10.3389 5.75336 9.8689 5.28339 9.28916 5.28339C8.70941 5.28339 8.23944 5.75336 8.23944 6.33311C8.23944 6.91285 8.70941 7.38283 9.28916 7.38283Z"
          clip-rule="evenodd"></path>
</svg>
