<svg xmlns="http://www.w3.org/2000/svg" viewBox="0 0 24 24">
    <path d="M24,11.5a3,3,0,0,0-5.42-1.76A12.48,12.48,0,0,0,12.76,8c.06-1.06.37-2.9,1.39-3.48.63-.36,1.54-.19,2.71.46a2.49,2.49,0,1,0,.34-1.53,3.92,3.92,0,0,0-3.8-.23c-1.78,1-2.09,3.65-2.14,4.78A12.44,12.44,0,0,0,5.42,9.74,3,3,0,0,0,3,8.5a3,3,0,0,0-3,3,3,3,0,0,0,2.05,2.84A4.89,4.89,0,0,0,2,15c0,3.86,4.49,7,10,7s10-3.14,10-7a4.89,4.89,0,0,0-.05-.66A3,3,0,0,0,24,11.5Zm-17.5,2A1.5,1.5,0,1,1,8,15,1.5,1.5,0,0,1,6.5,13.5Zm9.41,5a7.88,7.88,0,0,1-3.91,1,7.93,7.93,0,0,1-3.93-1,.74.74,0,0,1-.27-1,.75.75,0,0,1,1-.28,7,7,0,0,0,6.34,0,.76.76,0,0,1,1,.28A.75.75,0,0,1,15.91,18.53ZM16,15a1.5,1.5,0,1,1,1.5-1.5A1.5,1.5,0,0,1,16,15Z"
          fill="#000000"></path>
</svg>
