<svg xmlns="http://www.w3.org/2000/svg" viewBox="0 0 24 24">
    <g>
        <path d="M10,3.31h.75a.25.25,0,0,1,.25.25v1a1,1,0,0,0,2,0v-1a.25.25,0,0,1,.25-.25H14A.75.75,0,0,0,14.47,2l-2-1.62a.73.73,0,0,0-.94,0L9.53,2A.75.75,0,0,0,10,3.31Z"
              fill="#000000"></path>
        <path d="M15.59,18.48a2,2,0,0,1,2.82-2.83l.66.66a.26.26,0,0,0,.28.05.25.25,0,0,0,.15-.23v-6a.76.76,0,0,0-.45-.69l-6.75-3a.7.7,0,0,0-.6,0L5,9.47a.76.76,0,0,0-.45.69v6a.25.25,0,0,0,.15.23.26.26,0,0,0,.28-.05l.66-.66a2,2,0,0,1,2.82,2.83L7.25,19.64a.26.26,0,0,0-.07.22.25.25,0,0,0,.15.18L11.8,22h0a.52.52,0,0,0,.4,0h0L16.66,20a.29.29,0,0,0,.15-.19.26.26,0,0,0-.07-.22Zm.77-8.55a.25.25,0,0,1,0,.46L12.1,12.25a.34.34,0,0,1-.2,0L7.64,10.39a.25.25,0,0,1,0-.46L11.9,8.07a.23.23,0,0,1,.2,0Z"
              fill="#000000"></path>
        <path d="M7.71,17.77a1,1,0,1,0-1.42-1.41L2.5,20.15a.24.24,0,0,1-.35,0l-.62-.62a.75.75,0,0,0-1.28.53v3a.75.75,0,0,0,.75.75H4a.75.75,0,0,0,.53-1.28l-.62-.61a.27.27,0,0,1,0-.36Z"
              fill="#000000"></path>
        <path d="M23.75,23.06v-3a.75.75,0,0,0-1.28-.53l-.62.62a.24.24,0,0,1-.35,0l-3.79-3.79a1,1,0,1,0-1.42,1.41l3.8,3.79a.27.27,0,0,1,0,.36l-.62.61A.75.75,0,0,0,20,23.81h3A.75.75,0,0,0,23.75,23.06Z"
              fill="#000000"></path>
    </g>
</svg>
