<svg xmlns="http://www.w3.org/2000/svg" fill="currentColor" viewBox="0 0 140 140">

    <g transform="matrix(5.833333333333333,0,0,5.833333333333333,0,0)">
        <g>
            <path d="M5,7A1,1,0,0,0,4,8v7.5a1,1,0,0,0,2,0V8A1,1,0,0,0,5,7Z"></path>
            <path d="M8.5,7a1,1,0,0,0-1,1v4a1,1,0,0,0,2,0V8A1,1,0,0,0,8.5,7Z"></path>
            <path d="M12,7a1,1,0,0,0-1,1v4a1,1,0,0,0,2,0V8A1,1,0,0,0,12,7Z"></path>
            <path d="M15.5,7a1,1,0,0,0-1,1v4a1,1,0,0,0,2,0V8A1,1,0,0,0,15.5,7Z"></path>
            <path d="M8.5,14a1,1,0,0,0-1,1v.5a1,1,0,0,0,2,0V15A1,1,0,0,0,8.5,14Z"></path>
            <path d="M12,14a1,1,0,0,0-1,1v.5a1,1,0,0,0,2,0V15A1,1,0,0,0,12,14Z"></path>
            <path d="M15.5,14a1,1,0,0,0-1,1v.5a1,1,0,0,0,2,0V15A1,1,0,0,0,15.5,14Z"></path>
            <path d="M19,7a1,1,0,0,0-1,1v7.5a1,1,0,0,0,2,0V8A1,1,0,0,0,19,7Z"></path>
            <path d="M21,3H3A3,3,0,0,0,0,6V18a3,3,0,0,0,3,3H21a3,3,0,0,0,3-3V6A3,3,0,0,0,21,3Zm1,15a1,1,0,0,1-1,1H3a1,1,0,0,1-1-1V6A1,1,0,0,1,3,5H21a1,1,0,0,1,1,1Z"></path>
        </g>
    </g>
</svg>