<svg xmlns="http://www.w3.org/2000/svg" viewBox="0 0 140 140">

    <g transform="matrix(5.833333333333333,0,0,5.833333333333333,0,0)">
        <g>
            <path d="M7.6,6.25a.52.52,0,0,0,0-.51C7.09,4.88,6.5,4,5.83,2.93a1,1,0,0,0-1.66,0C1.4,7.11,0,10,0,11.48a5,5,0,0,0,3.37,4.73.52.52,0,0,0,.47-.08A.49.49,0,0,0,4,15.69c0-.23,0-.47,0-.71C4,14.25,4,12.24,7.6,6.25Z"></path>
            <path d="M19.83,2.93a1,1,0,0,0-1.66,0c-.68,1-1.27,2-1.78,2.82a.52.52,0,0,0,0,.51C20,12.25,20,14.25,20,15c0,.24,0,.48,0,.71a.49.49,0,0,0,.19.44.52.52,0,0,0,.47.08A5,5,0,0,0,24,11.48C24,10,22.6,7.11,19.83,2.93Z"></path>
            <path d="M11.17,3.43C8.58,7.31,5.5,12.46,5.5,15a6.5,6.5,0,0,0,13,0c0-2.51-3.08-7.67-5.67-11.55A1,1,0,0,0,11.17,3.43ZM13.5,14H15a1,1,0,0,1,0,2H13.5a.5.5,0,0,0-.5.5V18a1,1,0,0,1-2,0v-1.5a.5.5,0,0,0-.5-.5H9a1,1,0,0,1,0-2h1.5a.5.5,0,0,0,.5-.5V12a1,1,0,0,1,2,0v1.5A.5.5,0,0,0,13.5,14Z"></path>
        </g>
    </g>
</svg>
