<svg xmlns="http://www.w3.org/2000/svg" viewBox="0 0 140 140">
    <g transform="scale(5.83333)">
        <circle cx="8" cy="9" r="2.5"/>
        <path d="M9.39 12.75a4 4 0 0 0-4.67 1.46.24.24 0 0 0 0 .23.26.26 0 0 0 .18.16 4 4 0 0 1 2.52 1.78.25.25 0 0 0 .21.12h.8a.25.25 0 0 0 .21-.12 4 4 0 0 1 2.52-1.78.26.26 0 0 0 .18-.16.24.24 0 0 0 0-.23 4 4 0 0 0-1.95-1.46Z"/>
        <circle cx="16" cy="9" r="2.5"/>
        <path d="M17.39 12.75a4 4 0 0 0-4.67 1.46.24.24 0 0 0 0 .23.26.26 0 0 0 .18.16 4 4 0 0 1 2.52 1.78.25.25 0 0 0 .21.12h.8a.25.25 0 0 0 .21-.12 4 4 0 0 1 2.52-1.78.26.26 0 0 0 .18-.16.24.24 0 0 0 0-.23 4 4 0 0 0-1.95-1.46Z"/>
        <circle cx="4" cy="18.5" r="2.5"/>
        <path d="M2.61 22.25A4 4 0 0 0 .8 23.6a.23.23 0 0 0 0 .26.24.24 0 0 0 .2.14h6a.24.24 0 0 0 .22-.14.23.23 0 0 0 0-.26 4 4 0 0 0-4.59-1.35Z"/>
        <circle cx="12" cy="18.5" r="2.5"/>
        <path d="M10.61 22.25A4 4 0 0 0 8.8 23.6a.23.23 0 0 0 0 .26.24.24 0 0 0 .2.14h6a.24.24 0 0 0 .22-.14.23.23 0 0 0 0-.26 4 4 0 0 0-4.59-1.35Z"/>
        <circle cx="20" cy="18.5" r="2.5"/>
        <path d="M18.61 22.25a4 4 0 0 0-1.81 1.35.23.23 0 0 0 0 .26.24.24 0 0 0 .2.14h6a.24.24 0 0 0 .22-.14.23.23 0 0 0 0-.26 4 4 0 0 0-4.59-1.35ZM22 15a2 2 0 0 0 2-2V2a2 2 0 0 0-2-2H2a2 2 0 0 0-2 2v11a2 2 0 0 0 2 2h.07a1 1 0 0 0 .63-.28A1 1 0 0 0 3 14a1 1 0 0 0-.8-1 .25.25 0 0 1-.2-.25V2.5a.5.5 0 0 1 .5-.5h19a.5.5 0 0 1 .5.5v10.27a.25.25 0 0 1-.2.25 1 1 0 0 0-.8 1 1 1 0 0 0 .3.72 1 1 0 0 0 .63.28Z"/>
    </g>
</svg>
