<svg xmlns="http://www.w3.org/2000/svg" viewBox="0 0 140 140">

    <g transform="matrix(5.833333333333333,0,0,5.833333333333333,0,0)">
        <g>
            <path d="M24,7.25a1,1,0,0,0-1-1H20.25A.25.25,0,0,0,20,6.5V16.75a2,2,0,0,1-2,2h-.75A.25.25,0,0,0,17,19v.75a1,1,0,0,0,1,1h5a1,1,0,0,0,1-1Z"></path>
            <path d="M12,18.75H10.75a.25.25,0,0,1-.25-.25V18a.25.25,0,0,1,.25-.25H17a2,2,0,0,0,2-2V5.25a2,2,0,0,0-2-2H2a2,2,0,0,0-2,2v10.5a2,2,0,0,0,2,2H8.25A.25.25,0,0,1,8.5,18v.5a.25.25,0,0,1-.25.25H7a1,1,0,0,0,0,2h5a1,1,0,0,0,0-2ZM2,15.25V5.75a.5.5,0,0,1,.5-.5h14a.5.5,0,0,1,.5.5v9.5a.5.5,0,0,1-.5.5H2.5A.5.5,0,0,1,2,15.25Z"
            ></path>
        </g>
    </g>
</svg>