<svg xmlns="http://www.w3.org/2000/svg" viewBox="0 0 24 24">
    <path d="M24,12A12,12,0,1,0,12,24h.12A11.89,11.89,0,0,0,24,12.12V12Zm-2,0a9.94,9.94,0,0,1-.36,2.63.49.49,0,0,1-.26.32A.51.51,0,0,1,21,15a3.47,3.47,0,0,1-1.52-1.27l-2.22-3.33a2.5,2.5,0,0,0-2.08-1.11h-.43a2.75,2.75,0,0,1,0-5.5h2.77a.48.48,0,0,1,.29.09A10,10,0,0,1,22,12ZM2.18,10.16a.49.49,0,0,1,.49-.41H7a3.44,3.44,0,0,1,2.47,1L10.6,11.9a3.5,3.5,0,0,1,.14,4.8L9.38,18.23a2.49,2.49,0,0,0-.63,1.66v.83a.49.49,0,0,1-.23.42.52.52,0,0,1-.47,0A10,10,0,0,1,2,12,9.26,9.26,0,0,1,2.18,10.16Z"
          fill="#000000"></path>
</svg>
