<svg xmlns="http://www.w3.org/2000/svg" viewBox="0 0 24 24">
    <g>
        <path d="M4,7H1A1,1,0,0,0,1,9H4A1,1,0,0,0,4,7Z" fill="#000000"></path>
        <path d="M3,11H1a1,1,0,0,0,0,2H3a1,1,0,0,0,0-2Z" fill="#000000"></path>
        <path d="M2.25,15H1a1,1,0,0,0,0,2H2.25a1,1,0,0,0,0-2Z" fill="#000000"></path>
        <path d="M23.93,7.37a.15.15,0,0,0-.15,0l-8.32,7.31a2.39,2.39,0,0,1-1.55.61,1.73,1.73,0,0,1-1.36-.61L6.42,7.4a.14.14,0,0,0-.15,0,.21.21,0,0,0-.1.13l-1.43,9A1.25,1.25,0,0,0,6,18H21a1.8,1.8,0,0,0,1.72-1.5L24,7.5A.12.12,0,0,0,23.93,7.37Z"
              fill="#000000"></path>
        <path d="M13.46,13.92a.94.94,0,0,0,1.32,0l8.28-7.27a.41.41,0,0,0,.14-.38C23.15,6,22.83,6,22.73,6H7.89a.56.56,0,0,0-.55.27.33.33,0,0,0,0,.38Z"
              fill="#000000"></path>
    </g>
</svg>
