<svg xmlns="http://www.w3.org/2000/svg" viewBox="0 0 24 24">
    <g>
        <path d="M14.68,8.4A.8.8,0,0,0,15,7.51l-.52-1.9a.25.25,0,0,1,.08-.26L16,4.13a.81.81,0,0,0,.24-.9.82.82,0,0,0-.77-.53H13.8a.26.26,0,0,1-.23-.16l-.81-2A.81.81,0,0,0,12,0a.83.83,0,0,0-.76.51l-.81,2a.25.25,0,0,1-.23.16H8.52a.82.82,0,0,0-.77.53.81.81,0,0,0,.24.9L9.43,5.36a.22.22,0,0,1,.08.25L9,7.49a.82.82,0,0,0,.33.89.83.83,0,0,0,1,0l1.57-1.22a.24.24,0,0,1,.3,0l1.57,1.23A.81.81,0,0,0,14.68,8.4Z"
              fill="#000000"></path>
        <path d="M4.48,13.32l1.57,1.23a.81.81,0,0,0,1.29-.86l-.52-1.9a.22.22,0,0,1,.08-.25l1.43-1.22a.79.79,0,0,0,.24-.9.81.81,0,0,0-.76-.54H6.13a.24.24,0,0,1-.23-.15l-.81-2a.83.83,0,0,0-.76-.51.82.82,0,0,0-.76.51l-.81,2a.25.25,0,0,1-.23.15H.84a.82.82,0,0,0-.76.54.81.81,0,0,0,.24.9l1.44,1.22a.26.26,0,0,1,.08.26l-.52,1.87a.82.82,0,0,0,.33.9.83.83,0,0,0,1,0l1.57-1.22A.26.26,0,0,1,4.48,13.32Z"
              fill="#000000"></path>
        <path d="M23.68,10.32a.81.81,0,0,0,.24-.9.82.82,0,0,0-.76-.54H21.48a.26.26,0,0,1-.24-.15l-.81-2a.81.81,0,0,0-1.51,0l-.81,2a.25.25,0,0,1-.23.15H16.19a.82.82,0,0,0-.53,1.44l1.45,1.22a.29.29,0,0,1,.08.26l-.52,1.87a.8.8,0,0,0,.33.9.83.83,0,0,0,.95,0l1.57-1.22a.26.26,0,0,1,.31,0l1.57,1.23a.81.81,0,0,0,1,0,.82.82,0,0,0,.34-.9l-.53-1.9a.26.26,0,0,1,.08-.25Z"
              fill="#000000"></path>
        <path d="M21.31,18.16H19.63A.25.25,0,0,1,19.4,18l-.81-2a.81.81,0,0,0-1.51,0l-.81,2a.25.25,0,0,1-.24.16H14.35a.82.82,0,0,0-.77.53.84.84,0,0,0,.24.91l1.45,1.22a.25.25,0,0,1,.07.26L14.82,23a.82.82,0,0,0,1.29.86l1.57-1.22a.24.24,0,0,1,.31,0l1.57,1.23A.82.82,0,0,0,20.85,23l-.53-1.9a.29.29,0,0,1,.08-.26l1.44-1.21a.82.82,0,0,0-.53-1.44Z"
              fill="#000000"></path>
        <path d="M10.62,18.16H8.94A.25.25,0,0,1,8.71,18L7.9,16a.81.81,0,0,0-.76-.52.84.84,0,0,0-.76.52l-.81,2a.24.24,0,0,1-.23.16H3.66a.82.82,0,0,0-.53,1.44l1.44,1.22a.23.23,0,0,1,.08.26L4.13,23a.82.82,0,0,0,1.29.86L7,22.59a.24.24,0,0,1,.31,0l1.56,1.23a.83.83,0,0,0,1,0,.8.8,0,0,0,.33-.89l-.52-1.9a.26.26,0,0,1,.08-.26l1.44-1.21a.82.82,0,0,0-.53-1.44Z"
              fill="#000000"></path>
    </g>
</svg>
