<svg xmlns="http://www.w3.org/2000/svg" viewBox="0 0 24 24">
    <path d="M19.19,6.25a1,1,0,0,0-1.46,1.12A8.4,8.4,0,0,1,18,9.5c0,1.12-.13,8.71-8.93,8.44a6.9,6.9,0,0,0-2.75.24.75.75,0,0,1-.64-1.36,7.68,7.68,0,0,1,3.44-.38,11.39,11.39,0,0,0,2.32-.1L9.74,11H10c1.91,0,3.17-1.41,3.46-3.87a1.05,1.05,0,0,0-.27-.81A1,1,0,0,0,12.46,6h-2a4,4,0,0,0-3-3.4V.5A.5.5,0,0,0,7,0C1.29,0,0,11.48,0,15.5v4A4.5,4.5,0,0,0,4.5,24h10A9.49,9.49,0,0,0,19.19,6.25ZM7.5,7a1,1,0,1,1,1-1A1,1,0,0,1,7.5,7Z"
          fill="#000000"></path>
</svg>
