<svg xmlns="http://www.w3.org/2000/svg" viewBox="0 0 24 24">
    <g>
        <path d="M7.37,4.73c-.61-.07-1.23-.15-1.86-.25l-.42-.12a.49.49,0,0,0-.63.25,8.76,8.76,0,0,0-.72,3.83c0,3.75,0,7.62-1.64,10.94a1,1,0,0,0,.27,1.22,16.71,16.71,0,0,0,3.91,2.22.49.49,0,0,0,.44,0A.55.55,0,0,0,7,22.43a91.59,91.59,0,0,0,.6-13A30.23,30.23,0,0,1,7.81,5.3a.49.49,0,0,0-.1-.37A.5.5,0,0,0,7.37,4.73Z"
              fill="#000000"></path>
        <path d="M14.68,5.35a.48.48,0,0,0-.52-.42C13.38,5,12.6,5,11.83,5s-1.33,0-2,0a.5.5,0,0,0-.52.42,28.44,28.44,0,0,0-.24,4.06,89,89,0,0,1-.68,13.62.5.5,0,0,0,.38.57A14.44,14.44,0,0,0,12,24a14.44,14.44,0,0,0,3.23-.38.5.5,0,0,0,.38-.57,89,89,0,0,1-.68-13.62A27.16,27.16,0,0,0,14.68,5.35Z"
              fill="#000000"></path>
        <path d="M21.9,19.38c-1.64-3.32-1.64-7.19-1.64-10.94a8.53,8.53,0,0,0-.79-4,.5.5,0,0,0-.3-.25.46.46,0,0,0-.38,0,2.31,2.31,0,0,1-.64.22l-1.53.21a.5.5,0,0,0-.34.2.53.53,0,0,0-.1.37,29,29,0,0,1,.25,4.17,91.59,91.59,0,0,0,.6,13,.55.55,0,0,0,.25.36.49.49,0,0,0,.44,0,16.71,16.71,0,0,0,3.91-2.22A1,1,0,0,0,21.9,19.38Z"
              fill="#000000"></path>
        <path d="M5.75,3a37.7,37.7,0,0,0,6.08.51A37.7,37.7,0,0,0,17.91,3a.49.49,0,0,0,.42-.49V1a1,1,0,0,0-1.15-1A34.9,34.9,0,0,1,6.48,0a1,1,0,0,0-.81.24A1,1,0,0,0,5.33,1V2.5A.49.49,0,0,0,5.75,3Z"
              fill="#000000"></path>
    </g>
</svg>
