<svg xmlns="http://www.w3.org/2000/svg" viewBox="0 0 24 24">
    <path d="M22,11.76a1,1,0,0,0-.63-.74,1,1,0,0,0-.93.11,7.9,7.9,0,0,1-1.07.66.5.5,0,0,1-.73-.4A13.31,13.31,0,0,0,8.77,0a1,1,0,0,0-1,.33,1,1,0,0,0-.13,1.06A9.17,9.17,0,0,1,8,8.13a.47.47,0,0,1-.42.33.48.48,0,0,1-.48-.24A8.38,8.38,0,0,1,6.48,7a1,1,0,0,0-1.66-.37,10.05,10.05,0,0,0-3,7.21,10.21,10.21,0,0,0,20.42,0A10.44,10.44,0,0,0,22,11.76Zm-9.68,9.42a.51.51,0,0,1-.62,0C10.48,20.24,7,17.34,7,15.08c0-2.72,3.14-3.82,4.58-1.57a.5.5,0,0,0,.84,0C13.86,11.26,17,12.36,17,15.08,17,17.34,13.52,20.24,12.31,21.18Z"
          fill="#000000"></path>
</svg>
