<svg xmlns="http://www.w3.org/2000/svg" viewBox="0 0 24 24">
    <g>
        <path d="M20.87,12.69a1,1,0,0,0,0-2c-6.18-.14-9-3-9-9h0a1,1,0,0,0-1-1h0a1,1,0,0,0-1,1h0c0,6.05-2.89,8.91-9,9a1,1,0,0,0,0,2h0c6.06,0,8.91,2.86,9,9a1,1,0,0,0,1,1h0a1,1,0,0,0,1-1c.31-6.17,3.15-9,8.94-9Z"
              fill="#000000"></path>
        <path d="M16.89,3.81h1.25V5.06a.75.75,0,0,0,1.5,0V3.81h1.25a.75.75,0,0,0,0-1.5H19.64V1.06a.75.75,0,1,0-1.5,0V2.31H16.89a.75.75,0,0,0,0,1.5Z"
              fill="#000000"></path>
        <path d="M23.12,20.19H21.87V18.94a.75.75,0,0,0-1.5,0v1.25H19.12a.75.75,0,0,0,0,1.5h1.25v1.25a.75.75,0,0,0,1.5,0V21.69h1.25a.75.75,0,0,0,0-1.5Z"
              fill="#000000"></path>
    </g>
</svg>
