<svg xmlns="http://www.w3.org/2000/svg" viewBox="0 0 24 24">
    <g>
        <path d="M18.25,4.5H19a.5.5,0,0,1,.5.5v.75a.75.75,0,0,0,1.5,0V5a.5.5,0,0,1,.5-.5h.75a.75.75,0,0,0,0-1.5H21.5a.5.5,0,0,1-.5-.5V1.75a.75.75,0,0,0-1.5,0V2.5A.5.5,0,0,1,19,3h-.75a.75.75,0,0,0,0,1.5Z"
              fill="#000000"></path>
        <path d="M4.75,16.5h-.5A.25.25,0,0,1,4,16.25v-.5a.75.75,0,0,0-1.5,0v.5a.25.25,0,0,1-.25.25h-.5a.75.75,0,0,0,0,1.5h.5a.25.25,0,0,1,.25.25v.5a.75.75,0,0,0,1.5,0v-.5A.25.25,0,0,1,4.25,18h.5a.75.75,0,0,0,0-1.5Z"
              fill="#000000"></path>
        <path d="M15.81,10.14A1.13,1.13,0,0,0,15.09,9L12.9,8.16a.49.49,0,0,1-.31-.46l-.06-2.45a1.11,1.11,0,0,0-1.91-.81L9.3,5.77a.5.5,0,0,1-.52.11L6.6,5.13h0a1.15,1.15,0,0,0-1.18.28A1.16,1.16,0,0,0,5.13,6.6l.75,2.18a.48.48,0,0,1-.12.52L4.44,10.62a1.11,1.11,0,0,0-.25,1.23,1.14,1.14,0,0,0,1,.68l2.47.06a.49.49,0,0,1,.45.31L9,15.09A1.15,1.15,0,0,0,11.2,15L12,12.29a.49.49,0,0,1,.34-.34L15,11.2A1.14,1.14,0,0,0,15.81,10.14Z"
              fill="#000000"></path>
        <path d="M2.72,3.78A.75.75,0,0,0,3.78,2.72l-1.5-1.5A.75.75,0,0,0,1.22,2.28Z" fill="#000000"></path>
        <path d="M8.75,3.5a.76.76,0,0,0,.75-.75v-2A.75.75,0,0,0,8,.75v2A.76.76,0,0,0,8.75,3.5Z" fill="#000000"></path>
        <path d="M3.5,9.25a.76.76,0,0,0-.75-.75h-2a.75.75,0,0,0,0,1.5h2A.76.76,0,0,0,3.5,9.25Z" fill="#000000"></path>
        <path d="M23.36,20.65l-8.87-7.88a.49.49,0,0,0-.68,0l-1,1a.49.49,0,0,0,0,.68l7.89,8.87a1.92,1.92,0,1,0,2.7-2.71Z"
              fill="#000000"></path>
    </g>
</svg>
