<svg xmlns="http://www.w3.org/2000/svg" viewBox="0 0 24 24">
    <g>
        <path d="M18.71,18a.51.51,0,0,0,.41-.2A8,8,0,0,0,12.75,5q-.3,0-.6,0a.51.51,0,0,0-.45.39A2,2,0,0,1,9.75,7c-1.91-.14-2.42,1-2.5,2.6a2,2,0,0,1-1.94,1.9.5.5,0,0,0-.49.43A9.45,9.45,0,0,0,4.75,13a8,8,0,0,0,1.63,4.83.51.51,0,0,0,.41.2C8.42,18,17.09,18,18.71,18Zm-2.49-7.9a.51.51,0,0,1,.07-.71A.52.52,0,0,1,17,9.5a8.14,8.14,0,0,1,1.6,3.43.51.51,0,0,1-.4.59.5.5,0,0,1-.58-.39A7.14,7.14,0,0,0,16.22,10.13Z"
              fill="#000000"></path>
        <path d="M23.26,2.5c-1.39,0-2-.65-2-2a.5.5,0,0,0-.5-.5h0a.5.5,0,0,0-.5.5h0c0,1.36-.62,2-2,2a.5.5,0,0,0,0,1h0c1.43,0,2,.6,2,2a.51.51,0,0,0,.49.5h0a.5.5,0,0,0,.5-.47c.07-1.41.68-2,2-2h0a.5.5,0,0,0,0-1Z"
              fill="#000000"></path>
        <path d="M5.75,9.53c.14-2.75,1.4-4,4-4h0a.5.5,0,0,0,0-1c-2.75-.06-4-1.33-4-4a.5.5,0,0,0-.5-.5h0a.5.5,0,0,0-.5.5h0c0,2.69-1.28,4-4,4a.5.5,0,0,0,0,1h0c2.7,0,4,1.27,4,4a.51.51,0,0,0,.49.5h0A.5.5,0,0,0,5.75,9.53Z"
              fill="#000000"></path>
        <path d="M21.75,21H20.08a.09.09,0,0,1-.08-.08,1.43,1.43,0,0,0-1.42-1.42H6.92A1.43,1.43,0,0,0,5.5,20.92a.09.09,0,0,1-.08.08H3.75a1.5,1.5,0,0,0,0,3h18a1.5,1.5,0,0,0,0-3Z"
              fill="#000000"></path>
    </g>
</svg>
