<svg xmlns="http://www.w3.org/2000/svg" viewBox="0 0 140 140">

    <g transform="matrix(5.833333333333333,0,0,5.833333333333333,0,0)">
        <path d="M12,.5a10,10,0,0,0-10,10V13a5.49,5.49,0,0,0,3.2,5,2,2,0,0,1,1,2.48c-.64,1.82-.91,2.17-.43,2.7a1,1,0,0,0,.74.33h2A.5.5,0,0,0,9,23V21a1,1,0,0,1,2,0v2a.5.5,0,0,0,.5.5h1A.5.5,0,0,0,13,23V21a1,1,0,0,1,2,0v2a.5.5,0,0,0,.5.5h1.95a1,1,0,0,0,.74-.33c.48-.53.22-.87-.43-2.7a2,2,0,0,1,1-2.48A5.49,5.49,0,0,0,22,13V10.5A10,10,0,0,0,12,.5Zm-4.5,14A2.5,2.5,0,1,1,10,12,2.5,2.5,0,0,1,7.5,14.51Zm5.68,2.76a.51.51,0,0,1-.43.24h-1.5a.49.49,0,0,1-.42-.24.5.5,0,0,1,0-.49l.75-1.5a.52.52,0,0,1,.9,0l.75,1.5A.5.5,0,0,1,13.18,17.27Zm3.32-2.76A2.5,2.5,0,1,1,19,12,2.5,2.5,0,0,1,16.5,14.51Z"></path>
    </g>
</svg>
