<svg xmlns="http://www.w3.org/2000/svg" viewBox="0 0 140 140">

    <g transform="matrix(5.833333333333333,0,0,5.833333333333333,0,0)">
        <path d="M20.5,7.43a1.86,1.86,0,0,0-.48.06.24.24,0,0,1-.3-.18,8,8,0,0,0-2-3.5.24.24,0,0,1,0-.35A1.88,1.88,0,0,0,18,3.07a2,2,0,0,0-3.46-2,1.79,1.79,0,0,0-.19.45.25.25,0,0,1-.31.17,8,8,0,0,0-4,0,.25.25,0,0,1-.31-.17,1.79,1.79,0,0,0-.19-.45A2,2,0,0,0,6,3.07a1.88,1.88,0,0,0,.29.39.24.24,0,0,1,0,.35,8,8,0,0,0-2,3.5.24.24,0,0,1-.3.18,1.86,1.86,0,0,0-.48-.06,2,2,0,0,0,0,4A1.86,1.86,0,0,0,4,11.37a.25.25,0,0,1,.3.18,8,8,0,0,0,2,3.5.24.24,0,0,1,0,.35,2.19,2.19,0,0,0-.29.39,2,2,0,1,0,3.46,2,1.89,1.89,0,0,0,.19-.44.26.26,0,0,1,.31-.18l.32.08a.26.26,0,0,1,.2.25v1.79a1.69,1.69,0,0,0,.44,1.15.27.27,0,0,1,.06.17v1.07a.25.25,0,0,1-.25.25H9a1,1,0,0,0,0,2h6a1,1,0,0,0,0-2H13.25a.25.25,0,0,1-.25-.25V20.61a.27.27,0,0,1,.06-.17,1.69,1.69,0,0,0,.44-1.15V17.5a.26.26,0,0,1,.2-.25l.32-.08a.26.26,0,0,1,.31.18,1.89,1.89,0,0,0,.19.44,2,2,0,1,0,3.46-2,2.19,2.19,0,0,0-.29-.39.24.24,0,0,1,0-.35,8,8,0,0,0,2-3.5.25.25,0,0,1,.3-.18,1.86,1.86,0,0,0,.48.06,2,2,0,0,0,0-4Zm-5,4a2,2,0,1,1,2-2A2,2,0,0,1,15.5,11.43Zm-7,0a2,2,0,1,1,2-2A2,2,0,0,1,8.5,11.43Z"></path>
    </g>
</svg>
