<svg xmlns="http://www.w3.org/2000/svg" viewBox="0 0 140 140">

    <g transform="matrix(5.833333333333333,0,0,5.833333333333333,0,0)">
        <path d="M22.4,1.67A1.49,1.49,0,0,0,20.21.18C15.67,2.61,14,7.85,13.32,9.82a2.29,2.29,0,0,0-.09.26A5.65,5.65,0,0,0,12,10a5.58,5.58,0,0,0-1.23.13l-.09-.26C10,7.85,8.33,2.6,3.8.18A1.51,1.51,0,0,0,2.25.26,1.47,1.47,0,0,0,1.6,1.67,18.69,18.69,0,0,0,7,12.49l0,0a4.92,4.92,0,0,0-1,2.93A3.59,3.59,0,0,0,5,18a3.5,3.5,0,0,0,3.5,3.5h0v.72A1.83,1.83,0,0,0,10.33,24h3.34a1.83,1.83,0,0,0,1.83-1.83v-.72A3.5,3.5,0,0,0,19,18a3.59,3.59,0,0,0-1-2.5,5,5,0,0,0-1-2.93l0,0A18.7,18.7,0,0,0,22.4,1.67ZM8.5,15.44a1.25,1.25,0,1,1,1.25,1.25A1.25,1.25,0,0,1,8.5,15.44Zm5.35,3.36-1.5,1.5a.51.51,0,0,1-.7,0l-1.5-1.5a.49.49,0,0,1-.11-.55.5.5,0,0,1,.46-.31h3a.51.51,0,0,1,.46.31A.49.49,0,0,1,13.85,18.8Zm.4-2.11a1.25,1.25,0,1,1,1.25-1.25A1.24,1.24,0,0,1,14.25,16.69Z"></path>
    </g>
</svg>
