<svg xmlns="http://www.w3.org/2000/svg" viewBox="0 0 24 24">
    <g>
        <path d="M21.91,3.46,12.8.12a2.75,2.75,0,0,0-1.63,0L2.09,3.46a.55.55,0,0,0,0,1l9.72,3.9a.47.47,0,0,0,.4,0l9.72-3.9A.55.55,0,0,0,21.91,3.46ZM12,5.45a1.09,1.09,0,1,1,1.09-1.09A1.09,1.09,0,0,1,12,5.45Z"
              fill="#000000"></path>
        <path d="M23.25,5.58,13.16,9.64a.53.53,0,0,0-.34.51v13.3a.54.54,0,0,0,.75.5c2.4-1,9.67-4.2,9.67-4.2A1.26,1.26,0,0,0,24,18.59V6.09A.55.55,0,0,0,23.25,5.58ZM16.36,19.51a1.09,1.09,0,1,1,1.09-1.09A1.09,1.09,0,0,1,16.36,19.51Zm2.19-3.81a1.1,1.1,0,1,1,1.09-1.1A1.1,1.1,0,0,1,18.55,15.7Zm2.18-3.82a1.09,1.09,0,1,1,1.09-1.09A1.09,1.09,0,0,1,20.73,11.88Z"
              fill="#000000"></path>
        <path d="M10.84,9.64.75,5.58A.55.55,0,0,0,0,6.09v12.5a1.26,1.26,0,0,0,.76,1.16S8,22.92,10.43,24a.54.54,0,0,0,.75-.5V10.15A.53.53,0,0,0,10.84,9.64Zm-7,3.87a1.09,1.09,0,1,1,1.09-1.09A1.09,1.09,0,0,1,3.82,13.51Zm3.27,4.91a1.09,1.09,0,1,1,1.09-1.09A1.09,1.09,0,0,1,7.09,18.42Z"
              fill="#000000"></path>
    </g>
</svg>
