<svg xmlns="http://www.w3.org/2000/svg" viewBox="0 0 24 24">
    <g>
        <path d="M5.5,21.5a2,2,0,0,1-2-2v-2H.5a.49.49,0,0,0-.46.31.47.47,0,0,0,.11.54L2.29,20.5.15,22.65a.47.47,0,0,0-.11.54.49.49,0,0,0,.46.31H7A1.5,1.5,0,0,0,8.5,22v-.5Z"
              fill="#000000"></path>
        <path d="M21.71,20.5l2.14-2.15a.47.47,0,0,0,.11-.54.5.5,0,0,0-.46-.31h-3v2a2,2,0,0,1-2,2h-3V22A1.5,1.5,0,0,0,17,23.5h6.5a.5.5,0,0,0,.46-.31.47.47,0,0,0-.11-.54Z"
              fill="#000000"></path>
        <path d="M17.25,10a5.25,5.25,0,1,0-7.93,4.5h5.36A5.26,5.26,0,0,0,17.25,10Z" fill="#000000"></path>
        <path d="M5.5,14.5H7A6.76,6.76,0,1,1,17,14.5H18.5a2,2,0,0,1,1.47.65A9.5,9.5,0,1,0,4,15.15,2,2,0,0,1,5.5,14.5Z"
              fill="#000000"></path>
        <rect x="4.5" y="15.5" width="15" height="5" rx="1" fill="#000000"></rect>
    </g>
</svg>
