<svg xmlns="http://www.w3.org/2000/svg" fill="none" viewBox="0 0 24 24">
    <path fill="#000000" fill-rule="evenodd"
          d="M13 1C13 0.447715 12.5523 0 12 0C11.4477 0 11 0.447715 11 1V2C11 2.55228 11.4477 3 12 3C12.5523 3 13 2.55228 13 2V1ZM13 20.2339C13 19.6816 12.5523 19.2339 12 19.2339C11.4477 19.2339 11 19.6816 11 20.2339V23C11 23.5523 11.4477 24 12 24C12.5523 24 13 23.5523 13 23V20.2339ZM4.71875 12C4.71875 12.5523 4.27103 13 3.71875 13H1C0.447715 13 0 12.5523 0 12C0 11.4477 0.447715 11 1 11H3.71875C4.27103 11 4.71875 11.4477 4.71875 12ZM23 13C23.5523 13 24 12.5523 24 12C24 11.4477 23.5523 11 23 11H20.2812C19.729 11 19.2812 11.4477 19.2812 12C19.2812 12.5523 19.729 13 20.2812 13H23ZM3.33904 21.9493C2.94851 21.5588 2.94851 20.9256 3.33904 20.5351L5.35539 18.5187C5.74592 18.1282 6.37908 18.1282 6.76961 18.5187C7.16013 18.9092 7.16013 19.5424 6.76961 19.9329L4.75325 21.9493C4.36273 22.3398 3.72956 22.3398 3.33904 21.9493ZM20.661 3.73054C21.0515 3.34002 21.0515 2.70686 20.661 2.31633C20.2704 1.92581 19.6373 1.92581 19.2467 2.31633L17.2304 4.33269C16.8399 4.72321 16.8399 5.35638 17.2304 5.7469C17.6209 6.13743 18.2541 6.13743 18.6446 5.7469L20.661 3.73054ZM3.33904 2.31633C2.94851 2.70686 2.94851 3.34002 3.33904 3.73054L5.35539 5.7469C5.74592 6.13743 6.37908 6.13743 6.76961 5.7469C7.16013 5.35638 7.16013 4.72321 6.76961 4.33269L4.75325 2.31633C4.36273 1.92581 3.72956 1.92581 3.33904 2.31633ZM20.661 20.2695C21.0515 20.66 21.0515 21.2931 20.661 21.6837C20.2704 22.0742 19.6373 22.0742 19.2467 21.6837L17.2304 19.6673C16.8399 19.2768 16.8399 18.6436 17.2304 18.2531C17.6209 17.8626 18.2541 17.8626 18.6446 18.2531L20.661 20.2695ZM11.1032 4.53595C11.2408 4.26079 11.5205 3.94191 12.0004 3.94238C12.4793 3.94285 12.7584 4.26108 12.8958 4.53595L14.6559 8.05526L18.0198 8.39201C18.3267 8.42272 18.6716 8.57845 18.8441 8.95812C19.0352 9.37894 18.8944 9.80009 18.6264 10.068L15.8228 12.8707L16.864 16.6854C16.9551 17.0191 16.8876 17.4058 16.5857 17.6794C16.2588 17.9757 15.8239 17.9919 15.4805 17.8201L12.0001 16.0795L8.54856 17.8075C8.23991 17.962 7.79509 18.0181 7.42407 17.6904C7.06186 17.3705 7.06701 16.9439 7.14795 16.647L8.17728 12.8707L5.388 10.0805C5.16295 9.85543 4.9738 9.49113 5.1167 9.05663C5.26516 8.60526 5.65536 8.42259 5.99111 8.38898L9.34404 8.05334L11.1032 4.53595Z"
          clip-rule="evenodd"></path>
</svg>
