<svg xmlns="http://www.w3.org/2000/svg" viewBox="0 0 24 24">
    <path d="M21.5,2.5H2.5A2.5,2.5,0,0,0,0,5V19a2.5,2.5,0,0,0,2.5,2.5h19A2.5,2.5,0,0,0,24,19V5A2.5,2.5,0,0,0,21.5,2.5ZM15,8.62a.75.75,0,0,1,1.5,0v2.06a.75.75,0,0,1-1.5,0Zm-7.5,0a.75.75,0,1,1,1.5,0v2.06a.75.75,0,0,1-1.5,0Zm10.92,8.62a.75.75,0,0,1-1-.21,6.93,6.93,0,0,0-5.59-2.65A5.63,5.63,0,0,0,6.67,17a.76.76,0,0,1-.67.42.84.84,0,0,1-.34-.08.75.75,0,0,1-.33-1,7,7,0,0,1,6.46-3.4,8.35,8.35,0,0,1,6.83,3.32A.75.75,0,0,1,18.42,17.24Z"
          fill="#000000"></path>
</svg>
