<svg xmlns="http://www.w3.org/2000/svg" viewBox="0 0 24 24">
    <g>
        <path d="M23.53,6.43,16.9.27A1,1,0,0,0,15.82.08a1,1,0,0,0-.6.92V4.25A.25.25,0,0,1,15,4.5H2a2,2,0,0,0-2,2V14a1,1,0,0,0,1,1H5a1,1,0,0,0,1-1V10.75a.25.25,0,0,1,.25-.25H15a.25.25,0,0,1,.25.25V14a1,1,0,0,0,.6.92,1.1,1.1,0,0,0,.4.08,1,1,0,0,0,.68-.27l6.64-6.16a1.46,1.46,0,0,0,0-2.14Z"
              fill="#000000"></path>
        <rect y="16.5" width="6" height="3" rx="1" fill="#000000"></rect>
        <rect y="21" width="6" height="3" rx="1" fill="#000000"></rect>
    </g>
</svg>
