<svg xmlns="http://www.w3.org/2000/svg" viewBox="0 0 140 140">

    <g transform="matrix(5.833333333333333,0,0,5.833333333333333,0,0)">
        <path d="M23,7.5A1.5,1.5,0,0,0,21.5,6h-7a.25.25,0,0,1-.23-.15.26.26,0,0,1,.05-.28l3.87-3.86A1,1,0,1,0,16.79.29L12.18,4.91a.25.25,0,0,1-.36,0L7.21.29A1,1,0,0,0,5.79,1.71L9.66,5.57a.26.26,0,0,1,.05.28A.25.25,0,0,1,9.48,6h-7A1.5,1.5,0,0,0,1,7.5v13A1.5,1.5,0,0,0,2.5,22h.25a.25.25,0,0,1,.25.25V23a1,1,0,0,0,2,0v-.75A.25.25,0,0,1,5.25,22h13.5a.25.25,0,0,1,.25.25V23a1,1,0,0,0,2,0v-.75a.25.25,0,0,1,.25-.25h.25A1.5,1.5,0,0,0,23,20.5ZM7,19a3,3,0,0,1-3-3V12A3,3,0,0,1,7,9H17a3,3,0,0,1,3,3v4a3,3,0,0,1-3,3Z"></path>
    </g>
</svg>
