<svg xmlns="http://www.w3.org/2000/svg" viewBox="0 0 24 24">
    <g>
        <path d="M17.75,11.5V15a.75.75,0,0,0,1.5,0V11.5a.75.75,0,0,0-1.5,0Z" fill="#000000"></path>
        <path d="M13.75,8.5V5a.75.75,0,0,0-1.5,0V8.5a.75.75,0,0,0,1.5,0Z" fill="#000000"></path>
        <path d="M20.25,8V5.5A1.25,1.25,0,0,0,19,4.25H17.5A1.25,1.25,0,0,0,16.25,5.5V8A1.25,1.25,0,0,0,17.5,9.25H19A1.25,1.25,0,0,0,20.25,8Zm-1.5-.5a.25.25,0,0,1-.25.25H18a.25.25,0,0,1-.25-.25V6A.25.25,0,0,1,18,5.75h.5a.25.25,0,0,1,.25.25Z"
              fill="#000000"></path>
        <path d="M23.41,3,21,.59A2,2,0,0,0,19.59,0H8A2,2,0,0,0,6,2V9.28a.26.26,0,0,0,.24.25c.37,0,1,0,1.49.08A.25.25,0,0,0,8,9.36V2.5A.5.5,0,0,1,8.5,2H19.38a.47.47,0,0,1,.35.15l2.12,2.12a.47.47,0,0,1,.15.35V18a.5.5,0,0,1-.5.5H14.64a.25.25,0,0,0-.24.21A8.9,8.9,0,0,1,14,20.17a.24.24,0,0,0,.23.33H22a2,2,0,0,0,2-2V4.41A2,2,0,0,0,23.41,3Z"
              fill="#000000"></path>
        <path d="M14.41,15.66a1.23,1.23,0,0,0,.84-1.16V12A1.25,1.25,0,0,0,14,10.75H12.5a1.18,1.18,0,0,0-.91.43s0,.15,0,.18a6.89,6.89,0,0,1,1,1c.05.05.13.12.13,0s0-.14.11-.14h.64a.25.25,0,0,1,.25.25v1.59a.36.36,0,0,0,0,.1,7.42,7.42,0,0,1,.48,1.37A.2.2,0,0,0,14.41,15.66Z"
              fill="#000000"></path>
        <path d="M6.5,11A6.5,6.5,0,1,0,13,17.5,6.51,6.51,0,0,0,6.5,11ZM6,13.25a1,1,0,1,1-1,1A1,1,0,0,1,6,13.25Zm2,8.5H5a.75.75,0,0,1,0-1.5h.63a.12.12,0,0,0,.12-.12V17.88a.13.13,0,0,0-.13-.13H5a.75.75,0,0,1,0-1.5H6A1.25,1.25,0,0,1,7.25,17.5v2.62a.13.13,0,0,0,.13.13H8a.75.75,0,0,1,0,1.5Z"
              fill="#000000"></path>
    </g>
</svg>
