<svg xmlns="http://www.w3.org/2000/svg" viewBox="0 0 24 24">
    <g>
        <path d="M17.5,6h3.9a.25.25,0,0,0,.17-.43L16.43.43A.25.25,0,0,0,16,.6V4.5A1.5,1.5,0,0,0,17.5,6Z"
              fill="#000000"></path>
        <path d="M7,13.62H6.38a.26.26,0,0,0-.26.26v1.24a.26.26,0,0,0,.26.26H7a.88.88,0,0,0,0-1.76Z"
              fill="#000000"></path>
        <path d="M21.75,7H17.5A2.5,2.5,0,0,1,15,4.5V.25A.25.25,0,0,0,14.75,0H4A2,2,0,0,0,2,2V22a2,2,0,0,0,2,2H20a2,2,0,0,0,2-2V7.25A.25.25,0,0,0,21.75,7ZM6.87,16.62H6.38a.26.26,0,0,0-.26.26V19a.62.62,0,0,1-1.24,0V13a.61.61,0,0,1,.62-.62H7a2.12,2.12,0,0,1,2.11,2.34A2.2,2.2,0,0,1,6.87,16.62ZM14.12,19a.62.62,0,0,1-.48.61H13.5a.64.64,0,0,1-.56-.34l-1.55-3.11c-.07-.13-.27-.18-.27,0V19a.62.62,0,1,1-1.24,0V13a.62.62,0,0,1,.48-.61.63.63,0,0,1,.7.33l1.55,3.11c.07.12.27.16.27,0V13a.62.62,0,0,1,1.24,0Zm5-4a.62.62,0,1,1-1.24,0v-.5a.88.88,0,0,0-1.76,0v3a.89.89,0,0,0,.88.88.86.86,0,0,0,.8-.54c0-.06.06-.22-.09-.22H17.5a.62.62,0,0,1,0-1.24h1a.62.62,0,0,1,.62.62v.5a2.12,2.12,0,0,1-4.24,0v-3a2.12,2.12,0,0,1,4.24,0Z"
              fill="#000000"></path>
    </g>
</svg>
