<svg xmlns="http://www.w3.org/2000/svg" viewBox="0 0 24 24">
    <g>
        <path d="M17.5,6h3.9a.25.25,0,0,0,.17-.43L16.43.43A.25.25,0,0,0,16,.6V4.5A1.5,1.5,0,0,0,17.5,6Z"
              fill="#000000"></path>
        <path d="M12,13.12h-.62a.26.26,0,0,0-.26.26v1.24a.26.26,0,0,0,.26.26H12a.88.88,0,0,0,0-1.76Z"
              fill="#000000"></path>
        <path d="M21.75,7H17.5A2.5,2.5,0,0,1,15,4.5V.25A.25.25,0,0,0,14.75,0H4A2,2,0,0,0,2,2V22a2,2,0,0,0,2,2H20a2,2,0,0,0,2-2V7.25A.25.25,0,0,0,21.75,7ZM9.12,17a2.12,2.12,0,1,1-4.24,0,.62.62,0,1,1,1.24,0,.88.88,0,1,0,1.76,0V12.5a.62.62,0,0,1,1.24,0Zm2.75-.88h-.49a.26.26,0,0,0-.26.26V18.5a.62.62,0,1,1-1.24,0v-6a.61.61,0,0,1,.62-.62H12a2.12,2.12,0,0,1,2.11,2.34A2.2,2.2,0,0,1,11.87,16.12Zm7.25-1.62a.62.62,0,1,1-1.24,0V14a.88.88,0,0,0-1.76,0v3a.88.88,0,0,0,1.65.42c.05-.09.12-.3-.09-.3H17.5a.62.62,0,1,1,0-1.24h1a.62.62,0,0,1,.62.62V17a2.12,2.12,0,0,1-4.24,0V14a2.12,2.12,0,0,1,4.24,0Z"
              fill="#000000"></path>
    </g>
</svg>
