<svg xmlns="http://www.w3.org/2000/svg" viewBox="0 0 24 24">
    <g>
        <polygon points="3.63 13.5 11.63 13.5 11.63 8 17.13 8 17.13 0 3.63 0 3.63 13.5" fill="#000000"></polygon>
        <rect x="18.63" y="9.5" width="4" height="4" fill="#000000"></rect>
        <path d="M4.38,16H2.88v1.5h.74v4a1,1,0,0,1-2,0H.12a2.5,2.5,0,0,0,5,0V16.75A.75.75,0,0,0,4.38,16Z"
              fill="#000000"></path>
        <path d="M8.62,16H6.88a.76.76,0,0,0-.76.75V24h1.5V21h1a2.5,2.5,0,0,0,0-5Zm0,3.5h-1v-2h1a1,1,0,0,1,0,2Z"
              fill="#000000"></path>
        <path d="M11.88,16.75v6.5a.75.75,0,0,0,.74.75h4V22.5H13.38V20.75h3.24v-1.5H13.38V17.5h3.24V16h-4A.75.75,0,0,0,11.88,16.75Z"
              fill="#000000"></path>
        <path d="M23.12,19h-1.5v1.5h.76V22a1.6,1.6,0,0,1-1.26.48c-.52,0-2.24-.2-2.24-2.75a2.53,2.53,0,0,1,1.19-2.21,2.29,2.29,0,0,1,2.22-.12L23,16.08a3.78,3.78,0,0,0-3.68.19,4.06,4.06,0,0,0-1.9,3.48c0,2.94,1.88,4.25,3.74,4.25a3,3,0,0,0,2.68-1.42.73.73,0,0,0,.08-.33v-2.5A.76.76,0,0,0,23.12,19Z"
              fill="#000000"></path>
    </g>
</svg>
