<svg xmlns="http://www.w3.org/2000/svg" viewBox="0 0 24 24">
    <g>
        <path d="M17.5,6h3.9a.25.25,0,0,0,.17-.43L16.43.43A.25.25,0,0,0,16,.6V4.5A1.5,1.5,0,0,0,17.5,6Z"
              fill="#000000"></path>
        <path d="M17.71,14.27a4.9,4.9,0,0,0-1.35,1.95.12.12,0,0,0,.11.16h1.14a.26.26,0,0,0,.25-.26V14.34C17.86,14.22,17.76,14.23,17.71,14.27Z"
              fill="#000000"></path>
        <path d="M12,13.62h-.62a.26.26,0,0,0-.26.26v1.24a.26.26,0,0,0,.26.26H12a.88.88,0,0,0,0-1.76Z"
              fill="#000000"></path>
        <path d="M22,7.25A.25.25,0,0,0,21.75,7H17.5A2.5,2.5,0,0,1,15,4.5V.25A.25.25,0,0,0,14.75,0H4A2,2,0,0,0,2,2V22a2,2,0,0,0,2,2H20a2,2,0,0,0,2-2ZM9.12,19a.62.62,0,0,1-1.24,0V15.87c0-.07-.09,0-.12,0s-.2.41-.2.41a.66.66,0,0,1-1.12,0l-.2-.41s-.12,0-.12,0V19a.62.62,0,0,1-1.24,0V13a.62.62,0,0,1,.48-.61.63.63,0,0,1,.7.33l.8,1.61a.17.17,0,0,0,.28,0l.8-1.61a.63.63,0,0,1,.7-.33.62.62,0,0,1,.48.61Zm2.76-2.38h-.5a.26.26,0,0,0-.26.26V19a.62.62,0,1,1-1.24,0V13a.62.62,0,0,1,.62-.62H12a2.12,2.12,0,0,1,2.11,2.34A2.2,2.2,0,0,1,11.88,16.62Zm7.23.38v2a.63.63,0,0,1-1.25,0V17.87a.25.25,0,0,0-.25-.25H15.5A.64.64,0,0,1,15,17.4a.62.62,0,0,1-.14-.51,6.17,6.17,0,0,1,3.33-4.44.63.63,0,0,1,.61,0,.62.62,0,0,1,.29.53Z"
              fill="#000000"></path>
    </g>
</svg>
