<svg xmlns="http://www.w3.org/2000/svg" viewBox="0 0 24 24">
    <g>
        <path d="M17.5,6h3.9a.25.25,0,0,0,.17-.43L16.43.43A.25.25,0,0,0,16,.6V4.5A1.5,1.5,0,0,0,17.5,6Z"
              fill="#000000"></path>
        <path d="M12.65,14.33a5,5,0,0,0-1.27,1.82.17.17,0,0,0,.15.23h1.08a.26.26,0,0,0,.25-.26v-1.7C12.86,14.25,12.72,14.27,12.65,14.33Z"
              fill="#000000"></path>
        <path d="M21.75,7H17.5A2.5,2.5,0,0,1,15,4.5V.25A.25.25,0,0,0,14.75,0H4A2,2,0,0,0,2,2V22a2,2,0,0,0,2,2H20a2,2,0,0,0,2-2V7.25A.25.25,0,0,0,21.75,7ZM9.12,19a.62.62,0,0,1-1.24,0V16c0-.11-.14-.07-.17,0s-.15.3-.15.3a.66.66,0,0,1-1.12,0L6.29,16c0-.11-.17-.08-.17,0v3a.62.62,0,0,1-1.24,0V13a.62.62,0,0,1,.48-.61.63.63,0,0,1,.7.33s.71,1.44.78,1.57a.18.18,0,0,0,.31,0l.79-1.58a.63.63,0,0,1,.7-.33.62.62,0,0,1,.48.61Zm5,0a.63.63,0,0,1-1.25,0V17.88a.26.26,0,0,0-.25-.26H10.5A.64.64,0,0,1,10,17.4a.62.62,0,0,1-.14-.51,6.17,6.17,0,0,1,3.33-4.44.63.63,0,0,1,.61,0,.62.62,0,0,1,.29.53Zm5-4.5a8.17,8.17,0,0,1-1.62,4.88.64.64,0,0,1-1,0,8.17,8.17,0,0,1-1.62-4.88V13a.62.62,0,1,1,1.24,0v1.5a7,7,0,0,0,.68,3c.06.13.33.15.39,0a7.05,7.05,0,0,0,.69-3V13a.62.62,0,1,1,1.24,0Z"
              fill="#000000"></path>
    </g>
</svg>
