<svg xmlns="http://www.w3.org/2000/svg" viewBox="0 0 24 24">
    <g>
        <path d="M12,0A12,12,0,1,0,24,12,12,12,0,0,0,12,0Zm0,22.5A10.5,10.5,0,1,1,22.5,12,10.51,10.51,0,0,1,12,22.5Z"
              fill="#000000"></path>
        <path d="M20.33,11.2,13,4.78a1.49,1.49,0,0,0-2,0L3.67,11.2a.5.5,0,0,0,.33.88H5.5a.5.5,0,0,1,.5.5v6a.5.5,0,0,0,.5.5h3a.5.5,0,0,0,.5-.5v-3.5a.5.5,0,0,1,.5-.5h3a.5.5,0,0,1,.5.5v3.5a.5.5,0,0,0,.5.5h3a.5.5,0,0,0,.5-.5v-6a.5.5,0,0,1,.5-.5H20A.5.5,0,0,0,20.33,11.2Z"
              fill="#000000"></path>
    </g>
</svg>
