<svg xmlns="http://www.w3.org/2000/svg" viewBox="0 0 24 24">
    <g>
        <path d="M22,0H5.91A2,2,0,0,0,4.5.59L.59,4.5A2,2,0,0,0,0,5.91V22a2,2,0,0,0,2,2H22a2,2,0,0,0,2-2V2A2,2,0,0,0,22,0ZM18.5,2a.5.5,0,0,1,.5.5v4A1.5,1.5,0,0,1,17.5,8H7.5A1.5,1.5,0,0,1,6,6.5v-4A.5.5,0,0,1,6.5,2ZM5,22a.5.5,0,0,1-.5-.5v-8A1.5,1.5,0,0,1,6,12H19a1.5,1.5,0,0,1,1.5,1.5v8a.5.5,0,0,1-.5.5Z"
              fill="#000000"></path>
        <path d="M15,4.25v1.5a.75.75,0,0,0,1.5,0V4.25a.75.75,0,0,0-1.5,0Z" fill="#000000"></path>
        <path d="M7,16.25h6.5a.75.75,0,0,0,0-1.5H7a.75.75,0,0,0,0,1.5Z" fill="#000000"></path>
        <path d="M7,20.25H18a.75.75,0,0,0,0-1.5H7a.75.75,0,0,0,0,1.5Z" fill="#000000"></path>
    </g>
</svg>
