<svg xmlns="http://www.w3.org/2000/svg" viewBox="0 0 140 140">

    <g transform="matrix(5.833333333333333,0,0,5.833333333333333,0,0)">
        <g>
            <path d="M14,2.09A10.06,10.06,0,0,1,19.7,5.51a1,1,0,0,0,.77.37,1,1,0,0,0,.64-.23,1,1,0,0,0,.13-1.41A12.09,12.09,0,0,0,14.34.12a1,1,0,0,0-.38,2Z"></path>
            <path d="M2,12a1,1,0,0,0-1-1,1,1,0,0,0-1,1,12,12,0,0,0,2.72,7.55,1,1,0,0,0,.78.36,1,1,0,0,0,.63-.23,1,1,0,0,0,.14-1.4A10,10,0,0,1,2,12Z"></path>
            <path d="M23.87,10.14a1,1,0,0,0-1.13-.84,1,1,0,0,0-.85,1.13A10.28,10.28,0,0,1,22,11.9a10,10,0,0,1-2.24,6.3,1,1,0,0,0,.15,1.4.94.94,0,0,0,.63.23,1,1,0,0,0,.78-.37A12,12,0,0,0,24,11.9,11.49,11.49,0,0,0,23.87,10.14Z"></path>
            <path d="M15.37,21.31a10,10,0,0,1-6.69,0A1,1,0,0,0,8,23.22a12,12,0,0,0,8,0,1,1,0,1,0-.67-1.89Z"></path>
            <path d="M2.05,7.09a1,1,0,0,0,.51.15,1,1,0,0,0,.86-.49A10.1,10.1,0,0,1,8.58,2.49a1,1,0,0,0,.6-1.28A1,1,0,0,0,7.9.61,12.06,12.06,0,0,0,1.71,5.72,1,1,0,0,0,2.05,7.09Z"></path>
            <circle cx="15.5" cy="8.9" r="2.5"></circle>
            <path d="M15.5,12.15a4,4,0,0,0-2.36.77.24.24,0,0,0-.06.34A4.91,4.91,0,0,1,14,15.91a.26.26,0,0,0,.25.24h5a.23.23,0,0,0,.18-.08.23.23,0,0,0,.07-.19A4,4,0,0,0,15.5,12.15Z"></path>
            <path d="M9,12.15a4,4,0,0,0-4,3.73.23.23,0,0,0,.07.19.23.23,0,0,0,.18.08h7.48a.23.23,0,0,0,.18-.08.23.23,0,0,0,.07-.19A4,4,0,0,0,9,12.15Z"></path>
            <path d="M9.9,11.23a2.5,2.5,0,1,0-1.8,0,2.47,2.47,0,0,0,1.8,0Z"></path>
        </g>
    </g>
</svg>
