<svg xmlns="http://www.w3.org/2000/svg" viewBox="0 0 140 140">

    <g transform="matrix(5.833333333333333,0,0,5.833333333333333,0,0)">
        <g>
            <path d="M23.6,6.49l-.77-.82a.26.26,0,0,1,0-.33l.76-.83a1.45,1.45,0,0,0,.2-1.76A1.46,1.46,0,0,0,22.17,2l-1.09.26a.25.25,0,0,1-.28-.17l-.32-1.07A1.48,1.48,0,0,0,19.05,0h0a1.48,1.48,0,0,0-1.42,1.06L17.3,2.13A.24.24,0,0,1,17,2.3L15.94,2a1.45,1.45,0,0,0-1.62.71,1.46,1.46,0,0,0,.19,1.76l.77.83a.26.26,0,0,1,0,.33l-.77.82a1.48,1.48,0,0,0-.19,1.77,1.46,1.46,0,0,0,1.62.7L17,8.71a.23.23,0,0,1,.27.16L17.63,10A1.47,1.47,0,0,0,19.05,11h0A1.47,1.47,0,0,0,20.48,10l.32-1.08a.24.24,0,0,1,.28-.16L22.17,9A1.49,1.49,0,0,0,23.6,6.49Zm-4.55,1A1.94,1.94,0,1,1,21,5.5,1.94,1.94,0,0,1,19.05,7.44Z"></path>
            <path d="M14.71,15.4l.69-.62a1.81,1.81,0,0,0-1.3-3.15l-.93,0a.82.82,0,0,1-.85-.85l0-.93A1.81,1.81,0,0,0,9.22,8.6l-.62.69a.83.83,0,0,1-1.2,0L6.77,8.6A1.8,1.8,0,0,0,3.63,9.9l.05.93a.85.85,0,0,1-.24.62.81.81,0,0,1-.61.23l-.93,0A1.81,1.81,0,0,0,.6,14.78l.69.62a.82.82,0,0,1,.27.6.8.8,0,0,1-.27.6l-.69.63a1.8,1.8,0,0,0-.46,2A1.82,1.82,0,0,0,1.9,20.37l.93-.05a.82.82,0,0,1,.85.85l-.05.93a1.81,1.81,0,0,0,1.11,1.76,1.7,1.7,0,0,0,.69.14,1.83,1.83,0,0,0,1.34-.59l.63-.7a.83.83,0,0,1,1.2,0l.62.7a1.81,1.81,0,0,0,3.15-1.31l0-.93a.78.78,0,0,1,.24-.61.81.81,0,0,1,.61-.24l.93.05a1.84,1.84,0,0,0,1.76-1.11,1.8,1.8,0,0,0-.46-2l-.69-.63a.8.8,0,0,1-.27-.6A.82.82,0,0,1,14.71,15.4ZM12,16a4,4,0,1,1-4-4A4,4,0,0,1,12,16Z"></path>
        </g>
    </g>
</svg>