<svg xmlns="http://www.w3.org/2000/svg" viewBox="0 0 140 140">
    <g transform="matrix(5.833333333333333,0,0,5.833333333333333,0,0)">
        <g>
            <path d="M19.75,6h3.5a.52.52,0,0,0,.41-.21.48.48,0,0,0,.06-.45L22,.34A.51.51,0,0,0,21.5,0,.5.5,0,0,0,21,.34l-1.75,5a.48.48,0,0,0,.06.45A.52.52,0,0,0,19.75,6Z"></path>
            <path d="M17,2.5a.5.5,0,0,0-.5-.5H4a.5.5,0,0,0-.5.5v19A.5.5,0,0,0,4,22H16.5a.5.5,0,0,0,.5-.5Zm-9.5,8v-3A.5.5,0,0,1,8,7h5a.5.5,0,0,1,.5.5v3a.5.5,0,0,1-.5.5H8A.5.5,0,0,1,7.5,10.5Z"></path>
            <path d="M2.5,2.5A.5.5,0,0,0,2,2H1.5A1.5,1.5,0,0,0,0,3.5v17A1.5,1.5,0,0,0,1.5,22H2a.5.5,0,0,0,.5-.5Z"></path>
            <rect x="19" y="7" width="5" height="12.5" rx="0.5"></rect>
            <path d="M24,21a.5.5,0,0,0-.5-.5h-4a.5.5,0,0,0-.5.5v.5a2.5,2.5,0,0,0,5,0Z"></path>
        </g>
    </g>
</svg>