<svg xmlns="http://www.w3.org/2000/svg" viewBox="0 0 24 24" fill="currentColor">
    <path d="m16.13 11.05-3-3a.51.51 0 0 0-.7 0L4 16.48a1.5 1.5 0 0 0-.44 1.06A1.48 1.48 0 0 0 4 18.6l1.59 1.59a1.49 1.49 0 0 0 1.06.44 1.51 1.51 0 0 0 1.06-.44l8.43-8.44a.48.48 0 0 0-.01-.7ZM2.34 20.29l-2 2a1 1 0 0 0 0 1.42 1 1 0 0 0 1.42 0l2-2a1 1 0 0 0-1.42-1.42ZM17.19 10a.54.54 0 0 0 .36.14.52.52 0 0 0 .35-.14l3.42-3.43.38.43a1.09 1.09 0 0 1 .3.79 1.1 1.1 0 0 1-.3.79l-3.85 3.85a1 1 0 1 0 1.41 1.42L23.12 10a3.22 3.22 0 0 0 0-4.42L19.38 1.8a.48.48 0 0 0-.7 0l-4.36 4.35c-.19.2-.32.64-.13.84ZM4.72 11.74a3.75 3.75 0 0 0 3.63-1.63 4.07 4.07 0 0 0 .53-3.76A4.32 4.32 0 0 0 5.76 3.7C4.25 3.21 2.94 2.8 3.05.52A.52.52 0 0 0 2.76 0a.52.52 0 0 0-.56.1A6.85 6.85 0 0 0 .33 7.27c.67 2.31 2.52 4.15 4.39 4.47Zm10.93 2.86a.5.5 0 0 0-.66 0l-1.94 1.94a.47.47 0 0 0-.14.36.48.48 0 0 0 .16.36l7.14 6.57a.53.53 0 0 0 .34.13h.59a2.36 2.36 0 0 0 1.78-.49 3.45 3.45 0 0 0 .63-2.47.51.51 0 0 0-.19-.4Z"/>
</svg>