<svg xmlns="http://www.w3.org/2000/svg" viewBox="0 0 24 24">
    <g>
        <path d="M22.86.67a2.27,2.27,0,0,0-2.43.11,1.15,1.15,0,0,0-.17-.14L19.93.45a2.51,2.51,0,0,0-3.43.92L13.68,6.26a1,1,0,1,0,1.73,1l2.82-4.89a.51.51,0,0,1,.7-.19l.33.19-6.2,10.76a1.13,1.13,0,0,0,.41,1.55l2,1.13A1.13,1.13,0,0,0,17,15.39l6.7-11.62A2.26,2.26,0,0,0,22.86.67Z"
              fill="#000000"></path>
        <path d="M15.58,17.06,12.5,15.29a.49.49,0,0,0-.74.39l-.36,4.17a.51.51,0,0,0,.79.45l3.43-2.39a.49.49,0,0,0,.21-.43A.5.5,0,0,0,15.58,17.06Z"
              fill="#000000"></path>
        <path d="M9.76,21.82a6.16,6.16,0,0,1-3.47-.7,6.64,6.64,0,0,0-2.36-.66A5.48,5.48,0,0,0,.29,21.85a1,1,0,0,0,0,1.41,1,1,0,0,0,1.41,0,3.31,3.31,0,0,1,2.23-.82A6,6,0,0,1,5.54,23a9.53,9.53,0,0,0,3.57.92,5.12,5.12,0,0,0,1.09-.12,1,1,0,0,0-.44-1.95Z"
              fill="#000000"></path>
    </g>
</svg>
