<svg xmlns="http://www.w3.org/2000/svg" viewBox="0 0 24 24">
    <g>
        <path d="M11.44,19.39a.25.25,0,0,0,0-.27L3.33,10.39a4.43,4.43,0,0,1-.85-5.16A4.5,4.5,0,0,1,5.81,2.81a4.56,4.56,0,0,1,4,1.29l1.53,1.39a1,1,0,0,0,1.35,0l1.56-1.42a4.59,4.59,0,0,1,7.3,1.16,4.38,4.38,0,0,1-1,5.22.26.26,0,0,0-.05.28l.63,1.45a.23.23,0,0,0,.17.15.29.29,0,0,0,.22-.06l.29-.25a6.39,6.39,0,0,0,1.55-7.69A6.58,6.58,0,0,0,12.87,2.62L12,3.4l-.83-.75A6.51,6.51,0,0,0,5.49.84,6.45,6.45,0,0,0,.7,4.33a6.39,6.39,0,0,0,1.19,7.45L10.37,21a.25.25,0,0,0,.23.07.23.23,0,0,0,.19-.15Z"
              fill="#000000"></path>
        <path d="M22.74,14.25H20.07L18.66,11v0a1.29,1.29,0,0,0-1.15-.7,1.31,1.31,0,0,0-1.17.73l-1.41,3.27H12.26a1.23,1.23,0,0,0-1.17.76,1.29,1.29,0,0,0,.32,1.4l2.33,2.07-1.29,3a1.24,1.24,0,0,0,.31,1.45,1.3,1.3,0,0,0,1.51.17l3.23-1.82,3.23,1.82a1.28,1.28,0,0,0,1.51-.17,1.26,1.26,0,0,0,.32-1.45l-1.3-3,2.35-2.09a1.28,1.28,0,0,0,.3-1.38A1.24,1.24,0,0,0,22.74,14.25Z"
              fill="#000000"></path>
    </g>
</svg>
