<svg xmlns="http://www.w3.org/2000/svg" viewBox="0 0 24 24" fill="currentColor">
    <path d="M13.5 9A6 6 0 0 0 12 5V2.5a2.5 2.5 0 0 0-5 0V3a6 6 0 0 0-1.5 11.65v.64l-.85.86a.48.48 0 0 0 0 .7l.85.86v.58l-.85.86a.48.48 0 0 0 0 .7l.85.86V22a.47.47 0 0 0 .15.35l1.5 1.5a.48.48 0 0 0 .7 0l1.5-1.5A.47.47 0 0 0 9.5 22v-7.35a6 6 0 0 0 4-5.65Zm-6-3a1 1 0 1 1-1 1 1 1 0 0 1 1-1Zm2-5A1.5 1.5 0 0 1 11 2.5v1.63a5.93 5.93 0 0 0-2-.94V5H8V2.5A1.5 1.5 0 0 1 9.5 1Z"/>
    <path d="m22.35 18-5.19-5.2A6 6 0 0 0 16 6a6.2 6.2 0 0 0-1-.76.51.51 0 0 0-.61 0 .5.5 0 0 0-.12.59A7.4 7.4 0 0 1 15 9a7.48 7.48 0 0 1-3.47 6.32.5.5 0 0 0-.21.56.51.51 0 0 0 .48.36 6.18 6.18 0 0 0 2.54-.59l.65.57v1.28a.5.5 0 0 0 .5.5h1.29l.21.22v1.28a.5.5 0 0 0 .5.5h1.12l.92.86a.48.48 0 0 0 .34.14H22a.5.5 0 0 0 .5-.5v-2.12a.47.47 0 0 0-.15-.38Z"/>
</svg>