<svg xmlns="http://www.w3.org/2000/svg" viewBox="0 0 24 24" fill="currentColor">
    <path d="M20.56 3.05a.51.51 0 0 0-.54.11l-1.91 1.91a.5.5 0 0 0 0 .71L20 7.7a.52.52 0 0 0 .35.14.5.5 0 0 0 .5-.5v-.66a.25.25 0 0 1 .25-.25h1.65a1 1 0 0 0 0-2h-1.63a.25.25 0 0 1-.25-.25v-.67a.5.5 0 0 0-.31-.46ZM8.45 22.77a1 1 0 0 0-1-1H2.74a.5.5 0 0 1-.51-.49V2.7a.5.5 0 0 1 .5-.5h11.4a.51.51 0 0 1 .5.5v.94a1 1 0 0 0 2 0V2.19a2 2 0 0 0-2-2H2.19a2 2 0 0 0-2 2v19.62a2 2 0 0 0 2 2h5.26a1 1 0 0 0 1-1.04Z"/>
    <path d="m19.27 20.3 2.91-.3a1.43 1.43 0 0 0-.12-2.86c-.1 0 .1 0-3 .27a.47.47 0 0 1-.47-.26l-2-4a.24.24 0 0 1 0-.23.25.25 0 0 1 .2-.13h.15a2.66 2.66 0 0 1 2.1 1A1.44 1.44 0 1 0 21.29 12a5.56 5.56 0 0 0-6.42-1.7l-2.16.85a1.93 1.93 0 0 1-.67.12c-.85 0-1.21-.43-2.08-1.18a1.44 1.44 0 1 0-1.87 2.18l.84.72A4.79 4.79 0 0 0 12 14.2a5.07 5.07 0 0 0 1.49-.2.25.25 0 0 1 .3.12l.63 1.27a.27.27 0 0 1 0 .2.29.29 0 0 1-.13.14l-1.29.62a3.35 3.35 0 0 0-1.84 3.33l.25 2.51a1.44 1.44 0 1 0 2.86-.28L14 19.39a.48.48 0 0 1 .26-.48l1.29-.64a.27.27 0 0 1 .2 0c.1 0 .13.11.18.21a3.33 3.33 0 0 0 3.34 1.82Z"/>
    <path d="M12.48 9.63a2.42 2.42 0 1 0 0-4.83 2.42 2.42 0 0 0 0 4.83Z"/>
</svg>