<svg xmlns="http://www.w3.org/2000/svg" viewBox="0 0 140 140">

    <g transform="matrix(5.833333333333333,0,0,5.833333333333333,0,0)">
        <path d="M23,10.07a.24.24,0,0,1-.16-.19,11,11,0,0,0-8.67-8.67.24.24,0,0,1-.19-.16A1.5,1.5,0,0,0,12.5,0h-1a1.5,1.5,0,0,0-1.43,1.05.24.24,0,0,1-.19.16A11,11,0,0,0,1.21,9.88a.24.24,0,0,1-.16.19A1.5,1.5,0,0,0,0,11.5v1a1.5,1.5,0,0,0,1.05,1.43.24.24,0,0,1,.16.19,11,11,0,0,0,8.67,8.67.24.24,0,0,1,.19.16A1.5,1.5,0,0,0,11.5,24h1A1.5,1.5,0,0,0,13.93,23a.24.24,0,0,1,.19-.16,11,11,0,0,0,8.67-8.67.24.24,0,0,1,.16-.19A1.5,1.5,0,0,0,24,12.5v-1A1.5,1.5,0,0,0,23,10.07Zm-2.26-.38a.25.25,0,0,1-.24.31H17.29a.25.25,0,0,1-.23-.15,5.52,5.52,0,0,0-2.91-2.91A.25.25,0,0,1,14,6.71V3.55a.25.25,0,0,1,.31-.24A9,9,0,0,1,20.69,9.69ZM12,15.5A3.5,3.5,0,1,1,15.5,12,3.5,3.5,0,0,1,12,15.5ZM9.73,3.3a.22.22,0,0,1,.27.21v3.2a.25.25,0,0,1-.15.23A5.52,5.52,0,0,0,6.94,9.85a.25.25,0,0,1-.23.15H3.55a.25.25,0,0,1-.24-.31A9,9,0,0,1,9.73,3.3Zm-6.42,11A.25.25,0,0,1,3.55,14H6.71a.25.25,0,0,1,.23.15,5.52,5.52,0,0,0,2.91,2.91.25.25,0,0,1,.15.23v3.16a.25.25,0,0,1-.31.24A9,9,0,0,1,3.31,14.31Zm11,6.38a.25.25,0,0,1-.31-.24V17.29a.25.25,0,0,1,.15-.23,5.52,5.52,0,0,0,2.91-2.91.25.25,0,0,1,.23-.15h3.16a.25.25,0,0,1,.24.31A9,9,0,0,1,14.31,20.69Z"></path>
    </g>
</svg>
