<svg xmlns="http://www.w3.org/2000/svg" viewBox="0 0 24 24">
    <g>
        <path d="M21.24,20.15a.24.24,0,0,1,0-.32,5,5,0,0,0,.85-2.8,5,5,0,1,0-5,5,5,5,0,0,0,2.8-.86.24.24,0,0,1,.31,0l2.54,2.54a.78.78,0,0,0,1.09,0,.77.77,0,0,0,0-1.1ZM17,20.52A3.49,3.49,0,1,1,20.52,17,3.48,3.48,0,0,1,17,20.52Z"
              fill="#000000"></path>
        <path d="M10.5,17.24a.25.25,0,0,0-.25-.24H2.5a.5.5,0,0,1-.5-.5v-8A.5.5,0,0,1,2.5,8h18a.51.51,0,0,1,.5.5v3.26a.25.25,0,0,0,.09.19,6.68,6.68,0,0,1,1.45,1.64.24.24,0,0,0,.28.11.25.25,0,0,0,.18-.24V8a2,2,0,0,0-2-2H2A2,2,0,0,0,0,8v9a2,2,0,0,0,2,2h8.48a.26.26,0,0,0,.2-.1.23.23,0,0,0,0-.21A7,7,0,0,1,10.5,17.24Z"
              fill="#000000"></path>
        <circle cx="5" cy="12.5" r="1" fill="#000000"></circle>
        <circle cx="9" cy="12.5" r="1" fill="#000000"></circle>
    </g>
</svg>
