<svg xmlns="http://www.w3.org/2000/svg" viewBox="0 0 140 140">

    <g transform="matrix(5.833333333333333,0,0,5.833333333333333,0,0)">
        <g>
            <path d="M21.24,20.15a.24.24,0,0,1,0-.32,5,5,0,0,0,.85-2.8,5,5,0,1,0-5,5,5,5,0,0,0,2.8-.86.24.24,0,0,1,.31,0l2.54,2.54a.78.78,0,0,0,1.09,0,.77.77,0,0,0,0-1.1ZM17,20.52A3.49,3.49,0,1,1,20.52,17,3.48,3.48,0,0,1,17,20.52Z"></path>
            <path d="M10.5,17.24a.25.25,0,0,0-.25-.24H6.5a4.5,4.5,0,0,1,0-9h10a4.51,4.51,0,0,1,4.44,3.74.24.24,0,0,0,.09.16,6.5,6.5,0,0,1,1.45,1.6.25.25,0,0,0,.26.11.24.24,0,0,0,.2-.21,6.58,6.58,0,0,0,.06-.9A6.51,6.51,0,0,0,16.5,6H6.5a6.5,6.5,0,0,0,0,13h4a.26.26,0,0,0,.2-.1.23.23,0,0,0,0-.21A7,7,0,0,1,10.5,17.24Z"></path>
        </g>
    </g>
</svg>
