<svg xmlns="http://www.w3.org/2000/svg" xml:space="preserve" viewBox="0 0 2695.9868 1860.8267">
  <g fill="#fff">
    <path d="M1892.1599527 1149.35205112c-9.42666643-3.57866658-57.14666524-20.1479995-123.05333026-16.11733293-67.29333165 4.1119999-167.81332914 31.16799922-265.54666003 136.47332992 5.95999985 9.86399975 33.15999917 52.80799868 75.69333144 87.86533114 40.199999 33.15999917 81.42666463 49.77333209 123.18666359 49.77333209 24.77333271 0 49.73333209-5.85333319 74.79999813-17.55999956 60.38666516-28.21333263 98.02666422-77.50799807 111.90666387-146.506663 9.1733331-45.6573322 4.30666656-85.13866455 3.01333326-93.92799766m-220.85332782-277.67732639c-69.03999827 0-125.2133302-54.31199864-125.2133302-121.0693303 0-66.758665 56.17333193-121.06933031 125.2133302-121.06933031 69.03999828 0 125.2133302 54.3106653 125.2133302 121.0693303 0 66.75733167-56.17333192 121.0693303-125.2133302 121.0693303zm0-293.97332599c-98.75999753 0-179.10666219 77.56399807-179.10666219 172.90399568 0 95.33999762 80.34666466 172.90399568 179.1066622 172.90399568 98.75999752 0 179.09332885-77.56399806 179.09332885-172.90399568 0-95.33999761-80.33333133-172.90399568-179.09332886-172.90399568M997.1933084 1389.78671178c25.06133271 11.70666637 50.03866542 17.55999956 74.81199813 17.55999956 41.8093323 0 83.0626646-16.65333292 123.31999692-49.87999876 42.48799894-35.07466579 69.61199826-77.90933138 75.55066478-87.75866447-97.7253309-105.30399737-198.25332838-132.36133002-265.54666003-136.47332992-65.89466502-4.03733323-113.62399716 12.53999969-123.04399692 16.1159996-1.2973333 8.81199978-6.17333318 48.45199879 3.05333325 94.14266431 13.91199966 68.88799828 51.54399871 118.10666371 111.85466387 146.29332968m1392.57996519-623.06531776c-3.81333324-.50399999-5.91999985 2.01466662-6.55999984 4.3319999-.63999998 2.33999993-.12 5.61333318 3.46666658 7.14266648 24.1599994 10.3106664 40.479999 22.10666611 48.51999879 35.05999912 7.73333314 12.45466636 7.98666647 24.68133272.75999998 36.3399991-18.3066662 29.55466592-84.59999788 53.12666533-186.65332867 66.374665-103.26666408 13.40666633-229.22666093 14.30399964-354.8266578 2.5346666-9.55999975 8.01733314-10.61333306 19.29999952-8.31999978 27.36266599 2.3866666 8.36133312 9.63999976 17.76266622 22.85333276 19.07599952 136.9333299 13.60266633 289.4933261 7.57466648 418.5866562-16.53866625 119.93333033-22.40399944 204.49332822-57.09466524 226.18666101-92.79333102 7.0266665-11.57066637 6.97333316-22.50933277-.14666666-33.4413325-15.74666627-24.14533272-72.41333152-43.31999891-163.86666257-55.44933194M1526.17329518 258.1600734c-10.35999974-107.41333065-26.63999933-129.02666344-35.41333245-132.34666336-3.9199999-1.4933333-8.71999978-2.21333328-14.3066663-2.21333328-26.946666 0-72.2799982 16.95999958-126.27999685 47.74666548-73.83999815 42.10666561-156.59866275 105.74666402-233.0333275 179.19999552-3.64133325 3.49333324-4.86799989 8.63999978-3.19999993 13.413333 1.67866663 4.8133332 5.69866653 7.97333313 10.75333307 8.43999978 75.27333145 7.1066665 147.6079963 28.30666596 202.2146616 45.97333219 49.15866545 15.90666627 102.55866411 6.07999985 142.8386631-26.29333268 40.30666566-32.39999919 61.39999847-82.45333127 56.42666526-133.91999665m361.70665762 42.3466656c.69333332-1.79999995.53333332-4.26666655-1.94666661-5.83999985-45.79999886-28.83999927-135.26666329-83.57333124-219.79999451-125.95999685-.82666665-.42666665-1.6133333-.59999998-2.31999994-.59999998-1.70666663 0-3.05333326.99999997-3.8799999 2.18666661-1.15999998 1.66666663-1.58666663 4.21333323.70666664 6.31999984 46.34666551 42.71999893 111.98666387 110.37333058 161.43999597 190.10666192 1.3333333 2.1466666 3.53333324 2.5466666 5.14666654 2.21333327.77333331-.16 3.34666658-.9333333 3.7999999-4.0399999 1.86666662-12.82666634 3.23999992-34.6266658-.90666664-65.67999835-.13333333-1.03999998.22666666-2.09333328.98666664-2.83999993.75999998-.73333332 1.82666662-1.06666664 2.8666666-.89333331l48.55999878 8.09333313c2.89333326.47999999 4.66666655-1.26666664 5.34666653-3.0666666"/>
      <path d="M2639.30660068 849.08405863c-18.81333286 49.11199877-82.6266646 97.37866423-175.05332895 132.42533002-113.43999717 43.00399892-265.02666004 64.60133172-438.5066557 62.47599844 6.78666649 37.4573324 10.29333307 75.82933144 10.43999973 114.12266381.30666666 87.61466448-16.66666625 172.74666235-50.45333207 253.03866034-32.62666585 77.50666473-79.42666468 147.18666299-139.13332985 207.1066615-59.69333185 59.90666516-129.18666344 106.95999732-206.55999484 139.86652983-80.159998 34.06666581-165.2133292 51.34693205-252.82666035 51.34693205-87.60266447 0-172.59199568-17.1469329-252.60266035-50.99999873-77.27866473-32.68013251-146.68132966-79.48013134-206.27999484-139.06679652-59.59733185-59.59999851-106.390664-129.0133301-139.07732986-206.27999484-33.83999915-80.015998-50.99999872-165.00532921-50.99999872-252.61332702 0-95.09199762 20.10533283-186.72399533 59.7559985-272.35332653 4.68133322-10.11066641.06933333-19.11333285-6.5786665-23.54933274-6.64399983-4.43466656-16.71999958-5.2373332-24.25333273 2.9586666-70.1946649 76.34533142-97.31866423 183.15732875-105.72266402 225.53599435-.19466666.97999998-.81733331 1.8213333-1.69999996 2.29199995-.88266664.47066665-1.92799995.51999998-2.8506666.13733333C512.42532053 1035.40272064 354.30265782 936.6227231 233.9253275 831.2893924 173.557329 778.46539372 125.22399688 725.87072836 94.15106432 679.19072953c-34.2770658-51.49199871-48.08706546-95.63066427-41.0453323-131.18799672 4.53639988-22.90933276 17.23959956-40.175999 37.75626572-51.30933205 45.07399887-24.47999939 128.72999678-20.61333282 255.7419936 11.8399997 110.51599724 28.2199993 257.56666023 79.22399802 449.44265544 155.87866277.11333333-.27866666.22666666-.55866665.33999999-.8373333.64266665-1.5813333 2.37733327-2.42533328 4.0159999-1.9493333 1.43599996.41733333 2.3946666 1.72399996 2.4066666 3.1706666 45.05066554 1.06799997 235.79332744 57.0093319 437.34398907 116.11866376 75.68933144 22.19866611 153.85999615 45.12399887 225.6333277 65.52266503-14.8266663-29.70266593-22.6266661-62.66799844-22.6266661-95.8319976 0-58.43999855 23.22666608-113.14933051 65.51999835-154.64799614-267.58932664-102.63733077-466.55732167-152.19732953-575.6279856-143.33066308-1.3133333.10666666-2.57733328-.58666666-3.2066666-1.74666663-.62666664-1.1733333-.50133331-2.59999993.31733333-3.6399999 77.08399808-97.95999756 169.95066242-191.74666188 261.49466013-264.1199934 70.27466491-55.54666528 171.7159957-123.35999692 255.86266027-131.01333006 39.65333234-3.61333324 89.63999776 5.42666653 148.57332962 26.85333266 46.9466655 17.06666624 99.70666417 41.99999895 156.79999608 74.11999815 85.3733312 48.01333213 155.30666278 98.07999755 171.51999571 109.89333058 3.35999992-8.38666645 12.01333304-28.01333263 25.59999936-46.23999884 23.7599994-31.85333254 51.13333206-43.58666558 79.17333136-33.93333249 62.02666511 21.34666614 110.7066639 140.99999648 134.19999664 210.41332808 2.47999994 7.29333315-.2 15.05333295-6.65333317 19.27999952-6.43999983 4.23999989-14.59999963 3.5999999-20.31999949-1.55999997-42.69333226-38.65333236-74.95999812-58.90666519-90.9066644-57.0933319-25.61333268 2.95999992-37.87999904 38.10666571-50.87999872 75.30666478-11.42666638 32.71999918-23.23999942 66.55999834-45.78666552 78.95999803-21.0533328 11.57333304-42.53333227 7.03999982-53.63999866 3.21333325 3.10666659 7.90666647 8.29333313 22.03866612 14.4266663 42.39999894.49333333 1.6413333-.33333332 3.38933325-1.91999995 4.04266657-14.5866663 6.01599985-34.8266658 17.42266623-58.25333187 30.6346659-4.81333322 2.71199993-9.74666643 5.49199986-14.77333297 8.30533312 41.8133323 41.4133323 64.77333172 95.8879976 64.77333172 153.90266282 0 36.64133242-9.26666644 72.22933153-26.97333266 104.11333073 53.77333199-48.74666545 100.82666414-111.9359972 101.06666414-131.40399671.01333333-1.0853333.01333333-2.29999994-.01333333-3.61733325-.02666667-1.75733328 1.31999996-3.23599991 3.07999992-3.37333324 197.59999506-15.56666628 544.46665305-28.2759993 647.37331715 61.49466513 20.59999948 17.97066621 26.03999935 43.27866558 15.31999961 71.26533155zm55.97333194-39.903999c-3.1066666-27.114666-16.0799996-51.33999872-37.54666573-70.05866492-42.13333228-36.75599908-112.01333053-60.94666514-213.66666133-73.95999815-74.15999814-9.4933331-165.81332918-13.03599968-272.39999319-10.51733307-57.74666522 1.36266663-119.639997 4.51199989-184.17332872 9.3693331-6.37333318-37.73466573-14.17333298-73.3853315-23.26666609-106.31866401 3.18666659-1.3813333 6.30666651-2.9146666 9.35999977-4.59466655 39.799999-21.88533279 55.58666527-67.11333166 69.5333316-107.046664 4.37333322-12.51999968 8.51999978-24.39999938 12.79999967-33.86666581 9.63999976 6.27999984 24.58666605 17.39999956 46.03999885 36.8133324 22.9466661 20.77333282 57.0533319 23.41333276 82.9466646 6.42666652 25.90666601-16.98666625 37.0533324-49.34666544 27.11999932-78.67999804-11.82666637-34.93333246-31.13333256-86.02666451-55.98666527-131.07999672-33.66666583-61.0533318-69.6933316-97.4933309-110.13333058-111.42666388-29.2533326-10.05333308-59.22666519-7.70666648-86.69333117 6.79999983-18.39999954 9.71999976-35.34666578 24.85333271-50.35999874 44.98666554-.54666665.74666665-1.10666664 1.47999996-1.65333329 2.23999994-32.1199992-21.67999945-77.59999806-50.95999872-129.1333301-79.94666466C1638.09329238 29.6000791 1525.30662853-6.51991998 1442.8666306.96007983c-59.98666517 5.4533332-131.49599672 35.81333244-212.5239947 90.23999774-69.46799826 46.63999884-144.14932972 109.94666392-215.97332793 183.03999543-49.51599876 50.39999874-97.57866422 105.70666402-138.98799652 159.94666267-44.70533222 58.5466652-80.26133133 113.81999715-105.84399736 164.49332922-144.54399638-56.79199858-261.27599346-97.79999756-356.54799108-125.27999687-79.45733135-22.9066661-144.08132973-36.53333242-197.56266173-41.62666563-63.91733173-6.10666651-112.38239719.2-148.16466296 19.30666619-34.60893247 18.4666662-56.92293191 48.53333212-64.53022505 86.94666449-11.39322639 57.53466523 12.886493 125.5133302 72.16142486 202.04799495 49.79319875 64.29066506 115.22813045 122.71333026 161.35479596 160.40266266 70.76533157 57.82266522 152.31466286 113.47466383 235.83066077 160.9333293 72.89599818 41.42399897 146.934663 76.19466477 214.8266613 100.92399748.23733333 93.87333099 18.75733287 184.97199538 55.0546653 270.78532657 35.27466578 83.39999791 85.76133118 158.29332937 150.05999624 222.5866611 64.29733173 64.29333172 139.18666319 114.7866638 222.58799443 150.05332958 86.36933118 36.54639909 178.08932889 55.06666529 272.60532652 55.06666529 94.51999764 0 186.23999535-18.5202662 272.61332652-55.06666529 83.39999792-35.26666578 158.29332938-85.75999786 222.5866611-150.05332958 64.30666506-64.29333173 114.7866638-139.18666319 150.06666292-222.5866611 36.53333242-86.37333118 55.05333196-178.09332888 55.05333196-272.61332652 0-21.78399946-.99999998-43.69866558-2.99999993-65.35199837 24.33333273-.45066665 48.25333213-1.37199996 71.31999822-2.74933326 136.14666326-8.12666647 252.49332702-31.8439992 345.82665802-70.49599824 84.33333122-34.91999913 144.59999638-80.25866466 174.3066623-131.11466339 15.65333295-26.802666 22.33333278-55.02533196 19.29333286-81.61466463"/>
      <path d="M2058.79994853 289.24007262c3.73333324 2.10666662 7.21333315.77333332 9.23999977-1.1733333 1.98666662-1.91999995 3.42666658-5.31999987 1.4933333-9.06666644-11.42666639-22.07999945-31.46666588-49.89333209-62.11999845-57.0133319-5.26666654-1.22666664-10.45333307.37333332-15.85333294 4.90666654-7.86666647 6.61333316-12.14666636 16.38666625-11.73333304 26.81333266.42666666 10.79999973 5.6933332 20.59999948 14.47999964 26.866666l8.06666646 5.75999985c5.62666653-5.59999986 12.81333302-8.3999998 21.3733328-8.3999998 9.93333309 0 21.70666613 3.77333325 35.05333246 11.3066664"/>
  </g>
</svg>
