<svg xmlns="http://www.w3.org/2000/svg" xml:space="preserve" viewBox="0 0 3333.3333 2533.3333">
  <defs>
    <clipPath id="a" clipPathUnits="userSpaceOnUse">
      <path d="M0 1900h2500V0H0Z"/>
    </clipPath>
  </defs>
    <g clip-path="url(#a)" transform="matrix(1.33333 0 0 -1.33333 0 2533.3333)">
    <path d="M1670.5176 921.6104c-20.14 2.001-27.478 27.579-11.423 39.9 233.109-22.01 440.204 17.008 404.188 75.035-6.442 10.378-19.819 18.727-35.253 25.314-7.504 3.203-4.457 14.457 3.632 13.384 51.096-6.778 109.511-19.466 124.664-42.7 42.097-64.549-223.718-136.971-485.808-110.933m-97.52-318.408c-124.107-57.999-209.419 92.652-209.419 92.652 143.914 156.445 296.789 91.739 296.789 91.739s23.646-132.511-87.37-184.391m-587.157 0c-111.015 51.88-87.369 184.391-87.369 184.391s152.875 64.706 296.789-91.739c0 0-85.313-150.651-209.42-92.652m369.819 481.649c0 73 61.258 132.178 136.825 132.178 75.566 0 136.825-59.178 136.825-132.178s-61.259-132.178-136.825-132.178c-75.567 0-136.825 59.178-136.825 132.178m-280.533 301.85c125.496 120.593 247.617 182.408 282.829 169.085 14.662-5.548 23.203-49.862 28.17-101.362 8.1-83.955-72.461-148.745-152.71-122.777-48.077 15.558-99.017 29.448-151.126 34.364-10.239.966-14.58 13.563-7.163 20.69m414.6 136.813c63.168-31.679 129.818-72.4 165.06-94.596 5.679-3.577 2.329-12.367-4.293-11.264l-36.419 6.07c3.054-22.904 2.223-39.336.671-49.951-.831-5.675-8.285-7.199-11.308-2.325-37.549 60.536-87.813 111.795-120.647 142.056-5.239 4.828.567 13.205 6.936 10.01m241.344-43.967c4.135 3.473 8.866 5.414 14.064 4.206 23.606-5.491 39.079-26.343 48.237-44.045 3.793-7.336-4.306-15.066-11.499-11.007-13.797 7.787-30.734 13.138-40.74 1.026l-7.851 5.609c-14.813 10.581-16.151 32.503-2.211 44.211m474.277-416.99c-76.42 66.664-335.021 57.224-483.69 45.513.015-1.014.019-1.947.008-2.781-.208-16.884-42.964-73.099-89.205-111.273 18.08 25.95 28.635 57.201 28.635 90.835 0 45.389-19.224 86.435-50.227 115.972 23.234 12.958 44.004 25.217 57.961 30.972-7.389 24.556-13.026 37.123-13.026 37.123s22.346-11.705 43.628 0c34.611 19.036 34.641 111.511 73.422 115.986 16.297 1.88 47.362-22.822 70.143-43.443 7.637-6.914 19.485.876 16.182 10.633-17.518 51.749-53.602 140.583-99.094 156.245-48.68 16.758-76.615-61.718-76.615-61.718s-229.845 171.32-358.599 159.615c-105.557-9.597-273.875-152.567-386.279-295.406 110.262 8.953 311.228-60.869 436.501-109.071-31.585-29.603-51.221-71.037-51.221-116.908 0-27.396 7.013-53.207 19.381-75.865-201.374 57.09-468.613 140.653-505.089 137.661 0 0 .151.893.448 2.537-.399-.982-.793-1.963-1.178-2.937-324.51 129.784-537.082 186.35-556.147 90.071-21.46-108.372 230.498-315.939 451.357-407.851 7.123 35.92 28.531 114.483 79.903 170.359 12.844 13.97 35.207-.966 27.234-18.187-28.615-61.795-44.585-130.637-44.585-203.214 0-267.429 216.794-484.224 484.223-484.224 267.492 0 485.193 218.525 484.222 486.014-.109 30.109-2.974 59.566-8.341 88.141 384.052-5.487 511.263 141.801 450.048 195.201"/>
        <path d="M1492.4844 996.5498c50.482 0 91.406 39.534 91.406 88.302 0 48.767-40.924 88.302-91.406 88.302-50.482 0-91.406-39.535-91.406-88.302 0-48.768 40.924-88.302 91.406-88.302"/>
  </g>
</svg>
