<svg xmlns="http://www.w3.org/2000/svg" version="1.0" viewBox="0 0 512 512">
    <path d="M267.8 122.1c-14.3 3.2-36.3 18.1-55.3 37.3-8.6 8.8-19.5 21-19.5 21.8 0 .5 2.1.8 4.8.9 2.6 0 6.1.3 7.7.5 5.7.8 12 1.7 13 2 11.1 2.6 23.3 5.9 32.2 8.9 12.4 4 29.2 10.1 30 10.9.3.2-.5 1.5-1.6 2.8-7 7.4-9.6 21-6.1 31.3 1.2 3.5 1.4 5.2.7 5-4.2-1.4-84.2-24.3-87.2-25-1.1-.2-5.1-1-9-1.8-3.8-.8-16-4.8-27-9-55.7-21-83.8-25.4-91.1-14.2-5.6 8.5.3 21.4 18 39.1 16.9 16.8 35.3 29.8 59.6 42.1 10.9 5.5 12.6 6 13.2 4.5.3-.9 1.6-4.9 2.8-8.7 4-12.6 12.1-25.5 16.2-25.5 3.1 0 3.2 2.7.4 10.3-5.1 14.1-6.5 22.9-6.2 38.2.3 10.5.9 16.1 2.6 22.5 10.3 39.3 44.2 69 84 73.7 10.1 1.2 19.3.8 32-1.2 9.9-1.6 25.5-8.3 36.1-15.6 22.1-15 37.8-40 42-66.9.7-4.5.9-12.7.6-20.3l-.5-12.7 7.1-.1c27.6-.3 52.9-5.4 69.5-13.8 11-5.6 19.3-15.8 17.6-21.4-2.1-7-14.4-12.2-33.9-14.5-6.2-.7-47.6-.9-60.2-.3l-7.1.4-1.8 4c-1 2.2-5.1 7.4-9.1 11.6l-7.3 7.6 2.3-5.5c4.5-10.4 3-22.6-3.7-32l-3.4-4.8 5.4-2.8c5.5-2.9 6.4-4.6 4.4-8.4-.9-1.6-.6-1.8 2.8-1.5 5.4.4 7.8-2 11.9-12.2 1.9-4.8 4.2-9.6 5-10.6 2.9-3.1 6.5-2.1 14 4.1 2.6 2.1 4.9 3.2 5.9 2.8 1.8-.7 1.6-1.9-3.2-13.1-6.2-14.3-13.6-22.2-19.9-21-3.5.7-7.8 4.6-10 9.2-1 2.1-2.1 3.1-2.8 2.6-.7-.3-4.5-2.9-8.6-5.6-28.4-19-53.6-28.6-67.3-25.6zm12.7 13.3c2.8 6.7 4 21.4 2.2 27.3-1.6 5.2-10 13.5-15.3 15.1-6.1 1.8-9.5 1.5-20.8-1.7-5.5-1.6-13.5-3.5-17.6-4.2-11-1.8-11.5-2.7-4.9-9 13.3-12.7 38-28.7 47.5-30.7 5.4-1.2 7.4-.4 8.9 3.2zm49.3 17c9.9 6 11.6 8.2 5.4 7.2l-4.1-.6-.3 5.2c-.2 2.8-.7 5.3-1.3 5.4-.5.2-2.9-2.5-5.3-6s-8.1-10.3-12.7-15.2c-4.6-4.9-8.1-9.2-7.9-9.6.6-.9 12.7 5.4 26.2 13.6zm33.6-1.8c2 2 3.6 4.5 3.6 5.5 0 2.2-.6 2.3-4.9.8-2.4-.8-3.5-.9-4.4 0-1.7 1.7-4.7-1.7-4.7-5.5 0-5.6 5.2-6 10.4-.8zm-45.7 53.5c21 9.5 20.8 38.8-.2 48.5-17.2 8-37.4-3-39.8-21.6-.5-4.5 1.6-13 4.4-17.2 7.2-11 23.2-15.4 35.6-9.7zM428 232.7c8.1 1.9 11.5 3.6 13.6 6.8 1.5 2.3 1.5 2.7 0 5-3.8 5.7-19.1 12.1-36.1 14.9-13 2.2-20.4 2.8-36.5 3.1-26.5.4-31.5-.5-30.8-6 .3-1.9 1.1-2 25.8-2.1 14-.1 26.4-.4 27.6-.7 1.2-.3 4.5-.8 7.4-1.2 6.9-.9 16.6-3.9 20.8-6.5 2.8-1.7 3.3-2.5 3-5.3-.2-2.4-1.2-3.8-4-5.6-2.1-1.3-3.8-3-3.8-3.7 0-1.5 2-1.3 13 1.3zm-215.5 55.4c10 2.4 19.5 7.7 28.3 16.1l4.2 4-3.2 4.1c-8.7 11.4-18.5 17.2-28.5 17.1-16.8-.3-29.7-14.8-29.6-33.4.1-7.6.1-7.6 8.6-8.6 2.9-.4 5.3-.7 5.5-.9.6-.5 10.1.5 14.7 1.6zm123.3 0c4.6 1.3 4.6 1.2 4.3 10.2-.6 22.4-22.5 37.6-41.2 28.4-7.3-3.6-18.9-14.8-18.9-18.4 0-1.8 6.2-7.3 13.3-12 7.8-5.1 15.9-8.3 23.2-9 2.8-.3 5.1-.6 5.3-.8.6-.5 10.1.5 14 1.6z"/>
    <path d="M300.9 211c-9.3 2.7-14.7 10.4-13.6 19.7 1.3 12.1 16.5 19.5 27.4 13.4 4.2-2.4 9.2-9 9.4-12.6.5-6.3-1.2-11.5-5-15.8-3.4-3.9-12.6-6.3-18.2-4.7z"/>
</svg>
