<svg fill="#006fcf" xmlns="http://www.w3.org/2000/svg" x="0" y="0"
     viewBox="0 0 1600 1600">
    <switch>
        <g>
            <path fill="#fff" d="M1398.005 1401.005H198V201h1200.005v1200.005z"/>
            <path d="m956.234 1037.085-24.145-29.71v29.71h-78.991v-50.706c-10.208 4.702-21.395 7.13-33.194 7.13h-27.912v43.576H672.777l-21.823-28.55-21.701 28.55H431.419V848.647h198.75l21.707 28.298 21.709-28.298h724.42V201H198v506.083l45.206-105.56h77.676l25.22 58.892v-58.892h97.217l15.011 42.691 14.915-42.691h434.08v21.807c15.796-13.875 37.122-21.807 62.302-21.807h138.178l25.22 58.895v-58.895h81.83l21.64 33.541v-33.541h81.74v188.443h-81.27l-21.81-34.052v34.052h-118.7l-11.76-28.884h-32.52l-11.57 28.884h-73.723c-24.136 0-44.433-7.303-59.557-20.37v20.37h-121.84l-24.145-29.712v29.712H309.527l-11.758-28.884h-32.525l-11.562 28.884H198v611.039h1200.005v-377.81c-12.13 8.83-27.71 13.89-45.61 13.89H956.234z"
                  class="st1"/>
            <path d="m1384.725 903.884 14.11-31.711h-74.66c-30.77 0-48.99 18.784-48.99 44.436 0 26.663 17.24 42.013 44.09 42.013h33.51c7.44 0 12.74 4.647 12.74 11.715 0 7.069-5.3 11.514-12.74 11.514h-73.29v31.714h72.9c30.76 0 48.99-18.584 48.99-45.854 0-25.652-16.07-40.598-44.1-40.598h-33.5c-7.45 0-12.74-4.647-12.74-11.717 0-7.067 5.29-11.512 12.74-11.512h60.94zm-203.2 11.512c0-7.067 5.28-11.512 12.73-11.512h60.95l14.11-31.711h-74.66c-30.77 0-48.99 18.784-48.99 44.436 0 26.663 17.24 42.013 44.08 42.013h33.52c7.44 0 12.73 4.647 12.73 11.715 0 7.069-5.29 11.514-12.73 11.514h-73.3v31.714h72.91c30.76 0 48.98-18.584 48.98-45.854 0-25.652-16.07-40.598-44.09-40.598h-33.51c-7.45 0-12.73-4.647-12.73-11.717zm-162.84 98.169h115.23V981.85h-79.37v-24.037h77.41V926.91h-77.41v-23.027h79.37v-31.711h-115.23v141.392zm-5.68 0-45.847-51.508c23.121-4.85 37.037-22.219 37.037-44.235 0-27.067-18.817-45.649-48.99-45.649h-78.58v141.392h35.859V963.47h13.913l42.329 50.094h44.279zm-61.525-80.797h-38.996v-28.884h38.996c10.973 0 16.658 6.666 16.658 14.542 0 8.08-5.685 14.342-16.658 14.342zm-90.325-12.928c0-28.277-18.815-47.667-48.988-47.667h-79.56v141.392h35.859v-46.056h42.524c30.958 0 50.165-20.4 50.165-47.669zm-36.055.203c0 8.685-5.686 15.755-16.658 15.755h-39.976v-31.914h39.976c10.972 0 16.658 7.273 16.658 16.159zm-95.624 93.522-56.828-71.304 56.435-70.088H685.19l-33.314 43.425-33.311-43.425h-45.07l56.631 70.897-56.435 70.495h43.894l33.313-43.832 33.507 43.832h45.071zm-273.94 0H570.76V981.85h-79.365v-24.037h77.404V926.91h-77.404v-23.027h79.365v-31.711H455.536v141.392zm838.579-247.125V625.05h-35.66v87.662l-56.44-87.662h-45.46v141.39h35.86v-90.895l58.2 90.895h43.5zm-181.84 0h40.57l-60.56-141.39h-46.63l-60.553 141.39h39.583l11.56-28.884h64.28l11.75 28.884zm-24.29-59.588h-39.2l19.6-48.477 19.6 48.477zm-115.658-49.08h38.018V625.05h-40.762c-44.479 0-68.386 29.49-68.386 69.684v2.022c0 43.425 25.083 69.684 65.641 69.684h2.941l14.698-31.712h-11.561c-22.534 0-35.859-13.736-35.859-37.972v-2.022c0-21.208 11.757-36.962 35.27-36.962zM847.94 766.44h35.859V625.05H847.94v141.39zm-5.679 0-45.852-51.507c23.122-4.849 37.035-22.218 37.035-44.234 0-27.067-18.814-45.65-48.988-45.65h-78.58v141.39h35.859v-50.091h13.914l42.325 50.092h44.287zm-61.53-80.795h-38.996v-28.884h38.996c10.973 0 16.658 6.666 16.658 14.541 0 8.08-5.685 14.343-16.658 14.343zm-210.45 80.795h115.224v-31.712h-79.364v-24.037h77.403v-30.903h-77.403v-23.027h79.364V625.05H570.281v141.39zm-59.367 0h35.468V625.05h-56.435l-31.549 90.288-31.746-90.288h-57.024v141.39h35.468V661.81l37.231 104.63h31.356l37.231-104.63v104.63zm-185.562 0h40.561l-60.549-141.39h-46.639l-60.55 141.39h39.584l11.561-28.884h64.275l11.757 28.884zm-24.298-59.588h-39.192l19.595-48.477 19.597 48.477z"
                  class="st1"/>
        </g>
    </switch>
</svg>
