<svg xmlns="http://www.w3.org/2000/svg" xml:space="preserve" width="127.58667" height="83.800003"><defs><clipPath clipPathUnits="userSpaceOnUse" id="a"><path d="M0 62.85h95.69V0H0Z"/></clipPath></defs>
    <g clip-path="url(#a)" transform="matrix(1.33333 0 0 -1.33333 0 83.8)"><path d="M0 0v-52.256c0-1.103.897-2 2-2h55.482c15.535 0 28.128 12.593 28.128 28.128S73.017 2 57.482 2H2C.897 2 0 1.103 0 0" style="fill:#fff;fill-opacity:1;fill-rule:nonzero;stroke:none" transform="translate(3.297 57.5529)"/>
        <path d="M0 0c-.759-.685-1.744-.984-3.304-.984h-.648v8.186h.648c1.56 0 2.506-.278 3.304-1.001.835-.743 1.337-1.896 1.337-3.081C1.337 1.931.835.743 0 0m-2.82 9.3h-3.545V-3.079h3.526c1.874 0 3.228.441 4.417 1.429C2.99-.481 3.825 1.28 3.825 3.101c0 3.654-2.73 6.199-6.645 6.199"
              style="fill:#231f20;fill-opacity:1;fill-rule:nonzero;stroke:none" transform="translate(12.8787 28.4458)"/>
        <path d="M17.815 25.366h2.414v12.379h-2.414z"
              style="fill:#231f20;fill-opacity:1;fill-rule:nonzero;stroke:none"/>
        <path d="M0 0c-1.449.536-1.875.89-1.875 1.558 0 .78.759 1.373 1.799 1.373.724 0 1.318-.298 1.947-1.003l1.264 1.654C2.097 4.491.854 4.955-.502 4.955c-2.191 0-3.862-1.521-3.862-3.547 0-1.706.779-2.579 3.046-3.395.945-.333 1.426-.556 1.669-.705.482-.314.725-.761.725-1.281 0-1.003-.798-1.746-1.876-1.746-1.151 0-2.079.576-2.635 1.651l-1.56-1.502c1.113-1.633 2.449-2.356 4.286-2.356 2.51 0 4.27 1.668 4.27 4.064C3.561-1.895 2.747-1.005 0 0"
              style="fill:#231f20;fill-opacity:1;fill-rule:nonzero;stroke:none" transform="translate(26.1334 32.9953)"/>
        <path d="M0 0c0-3.638 2.857-6.459 6.534-6.459 1.039 0 1.929.204 3.027.72v2.843c-.966-.966-1.82-1.356-2.915-1.356-2.432 0-4.158 1.763-4.158 4.27 0 2.377 1.781 4.251 4.046 4.251 1.151 0 2.024-.41 3.027-1.392v2.841c-1.06.537-1.931.76-2.97.76C2.933 6.478 0 3.6 0 0"
              style="fill:#231f20;fill-opacity:1;fill-rule:nonzero;stroke:none" transform="translate(30.4559 31.5472)"/>
        <path d="m0 0-3.302 8.315h-2.637L-.686-4.383H.613L5.961 8.315H3.344Z"
              style="fill:#231f20;fill-opacity:1;fill-rule:nonzero;stroke:none" transform="translate(59.1627 29.431)"/>
        <path d="M0 0h6.848v2.096H2.413v3.341h4.271v2.097H2.413v2.747h4.435v2.098H0z"
              style="fill:#231f20;fill-opacity:1;fill-rule:nonzero;stroke:none" transform="translate(66.2152 25.3664)"/>
        <path d="M0 0h-.706v3.749h.743c1.505 0 2.322-.63 2.322-1.835C2.359.67 1.542 0 0 0m4.845 2.045c0 2.317-1.598 3.654-4.382 3.654h-3.581V-6.68h2.412v4.973h.316L2.951-6.68h2.97L2.023-1.465c1.82.37 2.822 1.614 2.822 3.51"
              style="fill:#231f20;fill-opacity:1;fill-rule:nonzero;stroke:none" transform="translate(77.7803 32.0464)"/>
        <path d="M0 0h-.045v.286h.047C.131.286.198.239.198.145.198.049.13 0 0 0m.459.149c0 .218-.15.337-.414.337h-.35V-.606h.26v.423l.306-.423h.318l-.359.45c.153.042.239.154.239.305"
              style="fill:#231f20;fill-opacity:1;fill-rule:nonzero;stroke:none" transform="translate(84.0899 36.9474)"/>
        <path d="M0 0c-.417 0-.758.347-.758.781 0 .434.338.782.758.782.416 0 .753-.356.753-.782C.753.351.416 0 0 0m.004 1.734c-.53 0-.951-.423-.951-.952 0-.528.426-.952.951-.952.516 0 .94.428.94.952 0 .521-.424.952-.94.952"
              style="fill:#231f20;fill-opacity:1;fill-rule:nonzero;stroke:none" transform="translate(84.1839 36.1074)"/>
        <path d="M0 0c0-3.62-2.934-6.555-6.555-6.555-3.621 0-6.556 2.935-6.556 6.555 0 3.621 2.935 6.555 6.556 6.555S0 3.621 0 0"
              style="fill:#f47922;fill-opacity:1;fill-rule:nonzero;stroke:none" transform="translate(53.9108 31.5694)"/>
        <path d="M0 0c0-15.535-12.593-28.128-28.128-28.128H-83.61c-1.103 0-2 .897-2 2v52.256c0 1.103.897 2 2 2h55.482C-12.593 28.128 0 15.535 0 0Zm1.482 29.128H-83.61c-1.657 0-3-1.343-3-3v-52.256c0-1.657 1.343-3 3-3H1.482c1.657 0 3 1.343 3 3v52.256c0 1.657-1.343 3-3 3"
              style="fill:#f47922;fill-opacity:1;fill-rule:nonzero;stroke:none" transform="translate(88.9072 31.4249)"/></g></svg>
