<svg xmlns="http://www.w3.org/2000/svg" fill="none" viewBox="0 0 24 24" stroke-width="1.5" height="24" width="24">
    <path stroke="#000000" stroke-linecap="round" stroke-linejoin="round" d="M0.75 21.5H3.75"></path>
    <path stroke="#000000" stroke-linecap="round" stroke-linejoin="round" d="M0.75 17H3.75"></path>
    <path stroke="#000000" stroke-linecap="round" stroke-linejoin="round" d="M9.75 17H12.75"></path>
    <path stroke="#000000" stroke-linecap="round" stroke-linejoin="round" d="M9.75 20.75L12.75 20"></path>
    <path stroke="#000000" stroke-linecap="round" stroke-linejoin="round" d="M15.75 20V16.25"></path>
    <path stroke="#000000" stroke-linecap="round" stroke-linejoin="round" d="M0.75 8H3.75"></path>
    <path stroke="#000000" stroke-linecap="round" stroke-linejoin="round" d="M0.75 12.5H3.75"></path>
    <path stroke="#000000" stroke-linecap="round" stroke-linejoin="round" d="M9.75 12.5H12.75"></path>
    <path stroke="#000000" stroke-linecap="round" stroke-linejoin="round" d="M9.75 8.75L12.75 9.5"></path>
    <path stroke="#000000" stroke-linecap="round" stroke-linejoin="round" d="M15.75 9.5V13.25"></path>
    <path stroke="#000000" stroke-linecap="round" stroke-linejoin="round" d="M18.75 16.25H23.25"></path>
    <path stroke="#000000" stroke-linecap="round" stroke-linejoin="round" d="M18.75 19.25L23.25 18.5"></path>
    <path stroke="#000000" stroke-linecap="round" stroke-linejoin="round" d="M18.75 13.25H23.25"></path>
    <path stroke="#000000" stroke-linecap="round" stroke-linejoin="round" d="M18.75 10.25L23.25 11"></path>
    <path stroke="#000000" stroke-linecap="round" stroke-linejoin="round" d="M21 5L23.25 7.25"></path>
    <path stroke="#000000" stroke-linecap="round" stroke-linejoin="round" d="M15.75 2L12 1.25"></path>
    <path stroke="#000000"
          d="M6.75 21.875C6.54289 21.875 6.375 21.7071 6.375 21.5C6.375 21.2929 6.54289 21.125 6.75 21.125"></path>
    <path stroke="#000000"
          d="M6.75 21.875C6.95711 21.875 7.125 21.7071 7.125 21.5C7.125 21.2929 6.95711 21.125 6.75 21.125"></path>
    <path stroke="#000000"
          d="M6.75 17.375C6.54289 17.375 6.375 17.2071 6.375 17C6.375 16.7929 6.54289 16.625 6.75 16.625"></path>
    <path stroke="#000000"
          d="M6.75 17.375C6.95711 17.375 7.125 17.2071 7.125 17C7.125 16.7929 6.95711 16.625 6.75 16.625"></path>
    <path stroke="#000000"
          d="M6.75 12.875C6.54289 12.875 6.375 12.7071 6.375 12.5C6.375 12.2929 6.54289 12.125 6.75 12.125"></path>
    <path stroke="#000000"
          d="M6.75 12.875C6.95711 12.875 7.125 12.7071 7.125 12.5C7.125 12.2929 6.95711 12.125 6.75 12.125"></path>
    <g>
        <path stroke="#000000"
              d="M6.75 8.375C6.54289 8.375 6.375 8.20711 6.375 8C6.375 7.79289 6.54289 7.625 6.75 7.625"></path>
        <path stroke="#000000"
              d="M6.75 8.375C6.95711 8.375 7.125 8.20711 7.125 8C7.125 7.79289 6.95711 7.625 6.75 7.625"></path>
    </g>
    <g>
        <path stroke="#000000"
              d="M18.75 3.875C18.5429 3.875 18.375 3.70711 18.375 3.5C18.375 3.29289 18.5429 3.125 18.75 3.125"></path>
        <path stroke="#000000"
              d="M18.75 3.875C18.9571 3.875 19.125 3.70711 19.125 3.5C19.125 3.29289 18.9571 3.125 18.75 3.125"></path>
    </g>
</svg>
