<svg xmlns="http://www.w3.org/2000/svg" viewBox="0 0 76.620006 20.589999">
    <path fill="#fff"
          d="M12.81 15.87h-1.23a.16.16 0 0 0-.16.16v4.07a.17.17 0 0 1-.17.17H8.76a.17.17 0 0 1-.17-.17V8.76a.17.17 0 0 1 .17-.17h4.12c2.56 0 4.57.93 4.57 3.6s-2.19 3.68-4.64 3.68zm-.17-5h-1.06a.16.16 0 0 0-.16.16v2.43a.16.16 0 0 0 .16.16h1c1.06 0 2-.31 2-1.42 0-1.11-.92-1.33-1.93-1.33zm15.72 9.3-.83-2.09a.16.16 0 0 0-.15-.1h-4.3a.16.16 0 0 0-.15.1l-.78 2.09a.16.16 0 0 1-.15.1h-2.72a.16.16 0 0 1-.15-.22L23.9 8.69a.16.16 0 0 1 .15-.1h2.53a.16.16 0 0 1 .15.1l4.72 11.37a.16.16 0 0 1-.15.22h-2.79a.16.16 0 0 1-.15-.11zm-3.25-8.06-1.25 3.39a.16.16 0 0 0 .15.21h2.48a.16.16 0 0 0 .15-.21l-1.23-3.39a.16.16 0 0 0-.3.01zm16.71 8.09-2.37-3.83a.16.16 0 0 0-.27 0L36.9 20.2a.16.16 0 0 1-.14.08h-3a.16.16 0 0 1-.13-.25l3.87-5.84a.16.16 0 0 0 0-.18L34 8.84a.16.16 0 0 1 .13-.25h3a.16.16 0 0 1 .14.08l2 3.32a.16.16 0 0 0 .27 0l2-3.32a.16.16 0 0 1 .14-.08h2.89a.16.16 0 0 1 .13.25L41.19 14a.16.16 0 0 0 0 .18l4 5.83a.16.16 0 0 1-.13.25H42a.16.16 0 0 1-.18-.06Zm11.79.39c-3.07 0-5-1.92-5-4.72V8.75a.16.16 0 0 1 .16-.16h2.48a.16.16 0 0 1 .16.16v6.88a2.2 2.2 0 1 0 4.39 0V8.75a.16.16 0 0 1 .2-.16h2.5a.16.16 0 0 1 .16.16v7.12c-.02 2.8-2 4.72-5.05 4.72zM74 20.27a.17.17 0 0 1-.17-.17l.07-8.1-3 8.16a.17.17 0 0 1-.16.11H69a.17.17 0 0 1-.16-.11L65.88 12l.06 8.1a.17.17 0 0 1-.17.17H63.4a.17.17 0 0 1-.17-.17V8.76a.17.17 0 0 1 .17-.17h3.72a.17.17 0 0 1 .16.11l2.62 7.38h.1l2.5-7.38a.17.17 0 0 1 .16-.11h3.79a.17.17 0 0 1 .17.17v11.35a.17.17 0 0 1-.17.17z"
          class="cls-1" data-name="&lt;Группа&gt;"/>
    <path fill="#ff5252" d="M0 10h3.05A7 7 0 0 1 10 3.05V0A10 10 0 0 0 0 10Z"/>
</svg>
