<svg xmlns="http://www.w3.org/2000/svg" fill="none" viewBox="0 0 48 48">
    <g transform="matrix(3.4285714285714284,0,0,3.4285714285714284,0,0)">
        <path fill="#000000" fill-rule="evenodd"
              d="M7 2C5.89543 2 5 2.89543 5 4V5H11C11.8285 5 12.5 5.67157 12.5 6.5V12.5C12.5 13.3284 11.8285 14 11 14H3.00003C2.1716 14 1.50003 13.3284 1.50003 12.5V6.5C1.50003 5.67158 2.17159 5.00002 3 5V4C3 1.79086 4.79086 0 7 0C8.18476 0 9.25024 0.516351 9.98124 1.33309C10.3496 1.74461 10.3145 2.37681 9.90302 2.74513C9.49149 3.11346 8.8593 3.07844 8.49097 2.66691C8.12333 2.25615 7.59224 2 7 2ZM7.00003 10.75C7.69039 10.75 8.25003 10.1904 8.25003 9.5C8.25003 8.80964 7.69039 8.25 7.00003 8.25C6.30967 8.25 5.75003 8.80964 5.75003 9.5C5.75003 10.1904 6.30967 10.75 7.00003 10.75Z"
              clip-rule="evenodd"></path>
    </g>
</svg>
