<svg xmlns="http://www.w3.org/2000/svg" fill="none" viewBox="0 0 14 14">
    <path fill="#000000" fill-rule="evenodd"
          d="M1.25 3.85462C0.517042 3.55793 0 2.83934 0 2C0 0.895431 0.895431 0 2 0C2.83934 0 3.55793 0.517042 3.85462 1.25H10.1454C10.4421 0.517042 11.1607 0 12 0C13.1046 0 14 0.895431 14 2C14 2.83934 13.483 3.55793 12.75 3.85462V10.1454C13.483 10.4421 14 11.1607 14 12C14 13.1046 13.1046 14 12 14C11.1607 14 10.4421 13.483 10.1454 12.75H3.85462C3.55793 13.483 2.83934 14 2 14C0.895431 14 0 13.1046 0 12C0 11.1607 0.517042 10.4421 1.25 10.1454V3.85462ZM4.5 4.375C4.15482 4.375 3.875 4.65482 3.875 5V6C3.875 6.34518 4.15482 6.625 4.5 6.625C4.84518 6.625 5.125 6.34518 5.125 6V5.625H6.375V8.875H6C5.65482 8.875 5.375 9.15482 5.375 9.5C5.375 9.84518 5.65482 10.125 6 10.125H7H8C8.34518 10.125 8.625 9.84518 8.625 9.5C8.625 9.15482 8.34518 8.875 8 8.875H7.625V5.625H8.875V6C8.875 6.34518 9.15482 6.625 9.5 6.625C9.84518 6.625 10.125 6.34518 10.125 6V5C10.125 4.65482 9.84518 4.375 9.5 4.375H7H4.5Z"
          clip-rule="evenodd"></path>
</svg>
