<svg xmlns="http://www.w3.org/2000/svg" viewBox="0 0 24 24">
    <g>
        <path d="M16.25,22.23a1,1,0,0,0,.29.71l.55.54a1.53,1.53,0,0,0,1.1.52,1.31,1.31,0,0,0,.48-.09,1.42,1.42,0,0,0,.83-1.43V2a2,2,0,0,0-2-2h-.75a.5.5,0,0,0-.5.5Z"
              fill="#000000"></path>
        <path d="M10.1,20.3l1.55-1.55a.5.5,0,0,1,.7,0L13.9,20.3a.5.5,0,0,0,.85-.36V.5a.5.5,0,0,0-.5-.5H9.75a.5.5,0,0,0-.5.5V19.94A.5.5,0,0,0,10.1,20.3Z"
              fill="#000000"></path>
        <path d="M7.25,0H6.5a2,2,0,0,0-2,2V22.48a1.42,1.42,0,0,0,.83,1.43,1.41,1.41,0,0,0,1.58-.43l.55-.54a1,1,0,0,0,.29-.71V.5A.5.5,0,0,0,7.25,0Z"
              fill="#000000"></path>
    </g>
</svg>
