<svg xmlns="http://www.w3.org/2000/svg" fill="none" viewBox="0 0 14 14">
    <path fill="#000000" fill-rule="evenodd"
          d="M4.15132 0.0444336C3.73711 0.0444336 3.40132 0.38022 3.40132 0.794434C3.40132 1.20865 3.73711 1.54443 4.15132 1.54443H5.18374C5.59795 1.54443 5.93374 1.20865 5.93374 0.794434C5.93374 0.38022 5.59795 0.0444336 5.18374 0.0444336H4.15132ZM0.796219 3.6559C1.21043 3.6559 1.54622 3.99168 1.54622 4.4059V5.43831C1.54622 5.85253 1.21043 6.18831 0.796219 6.18831C0.382005 6.18831 0.0462189 5.85253 0.0462189 5.43831V4.4059C0.0462189 3.99168 0.382005 3.6559 0.796219 3.6559ZM13.2029 6.98453C13.6171 6.98453 13.9529 6.64875 13.9529 6.23453V5.69848C13.9529 5.28427 13.6171 4.94848 13.2029 4.94848C12.7887 4.94848 12.4529 5.28427 12.4529 5.69848V6.23453C12.4529 6.64875 12.7887 6.98453 13.2029 6.98453ZM13.9529 9.84939C13.9529 10.2636 13.6171 10.5994 13.2029 10.5994C12.7887 10.5994 12.4529 10.2636 12.4529 9.84939V8.81698C12.4529 8.40276 12.7887 8.06698 13.2029 8.06698C13.6171 8.06698 13.9529 8.40276 13.9529 8.81698V9.84939ZM9.59173 12.4544C10.0059 12.4544 10.3417 12.7902 10.3417 13.2044C10.3417 13.6186 10.0059 13.9544 9.59173 13.9544H8.55931C8.1451 13.9544 7.80931 13.6186 7.80931 13.2044C7.80931 12.7902 8.1451 12.4544 8.55931 12.4544H9.59173ZM13.9536 12.1729C13.9536 11.7587 13.6178 11.4229 13.2036 11.4229C12.7894 11.4229 12.4536 11.7587 12.4536 12.1729C12.4536 12.3289 12.3272 12.4554 12.1712 12.4554C11.757 12.4554 11.4212 12.7911 11.4212 13.2054C11.4212 13.6196 11.757 13.9554 12.1712 13.9554C13.1556 13.9554 13.9536 13.1573 13.9536 12.1729ZM7.01618 0.794434C7.01618 0.38022 7.35197 0.0444336 7.76618 0.0444336H8.30223C8.71645 0.0444336 9.05223 0.38022 9.05223 0.794434C9.05223 1.20865 8.71645 1.54443 8.30223 1.54443H7.76618C7.35197 1.54443 7.01618 1.20865 7.01618 0.794434ZM1.54622 1.82685C1.54622 1.67087 1.67266 1.54443 1.82863 1.54443C2.24285 1.54443 2.57863 1.20865 2.57863 0.794434C2.57863 0.38022 2.24285 0.0444336 1.82863 0.0444336C0.844233 0.0444336 0.0462189 0.842448 0.0462189 1.82685C0.0462189 2.24106 0.382005 2.57685 0.796219 2.57685C1.21043 2.57685 1.54622 2.24106 1.54622 1.82685ZM0.0516769 8.4958C0.0516769 7.94351 0.499392 7.4958 1.05168 7.4958H5.50437C6.05666 7.4958 6.50437 7.94351 6.50437 8.4958V12.9485C6.50437 13.5008 6.05666 13.9485 5.50437 13.9485H1.05168C0.499392 13.9485 0.0516769 13.5008 0.0516769 12.9485V8.4958ZM10.4753 0.0462529L13.1512 0.0462529C13.1861 0.0438272 13.2211 0.0438272 13.256 0.0462529L13.4538 0.0462529C13.7299 0.0462529 13.9538 0.270111 13.9538 0.546253V3.52442C13.9538 3.72665 13.832 3.90896 13.6451 3.98636C13.4583 4.06375 13.2432 4.02098 13.1002 3.87799L12.1404 2.91822L8.3153 6.74298C8.0224 7.03586 7.54753 7.03584 7.25464 6.74294C6.96176 6.45003 6.96178 5.97516 7.25469 5.68227L11.0796 1.85762L10.1217 0.899827C9.97872 0.756832 9.93593 0.541769 10.0133 0.354925C10.0907 0.16808 10.273 0.0462529 10.4753 0.0462529Z"
          clip-rule="evenodd"></path>
</svg>
