<svg xmlns="http://www.w3.org/2000/svg" fill="none" viewBox="0 0 14 14">
    <path fill="#000000" fill-rule="evenodd"
          d="M7.75 0.851013C7.75 0.4368 7.41421 0.101013 7 0.101013C6.58579 0.101013 6.25 0.4368 6.25 0.851013V13.149C6.25 13.5632 6.58579 13.899 7 13.899C7.41421 13.899 7.75 13.5632 7.75 13.149V0.851013ZM4 2.466C4.41421 2.466 4.75 2.80179 4.75 3.216V10.784C4.75 11.1982 4.41421 11.534 4 11.534C3.58579 11.534 3.25 11.1982 3.25 10.784V3.216C3.25 2.80179 3.58579 2.466 4 2.466ZM1 4.83099C1.41421 4.83099 1.75 5.16678 1.75 5.58099V8.41898C1.75 8.8332 1.41421 9.16898 1 9.16898C0.585786 9.16898 0.25 8.8332 0.25 8.41898V5.58099C0.25 5.16678 0.585786 4.83099 1 4.83099ZM10 2.466C10.4142 2.466 10.75 2.80179 10.75 3.216V10.784C10.75 11.1982 10.4142 11.534 10 11.534C9.58579 11.534 9.25 11.1982 9.25 10.784V3.216C9.25 2.80179 9.58579 2.466 10 2.466ZM13.75 5.58099C13.75 5.16678 13.4142 4.83099 13 4.83099C12.5858 4.83099 12.25 5.16678 12.25 5.58099V8.41898C12.25 8.8332 12.5858 9.16898 13 9.16898C13.4142 9.16898 13.75 8.8332 13.75 8.41898V5.58099Z"
          clip-rule="evenodd"></path>
</svg>
