<svg xmlns="http://www.w3.org/2000/svg" fill="none" viewBox="0 0 14 14">
    <path fill="#000000" fill-rule="evenodd"
          d="M7 0C7.41421 0 7.75 0.335786 7.75 0.75V13.25C7.75 13.6642 7.41421 14 7 14C6.58579 14 6.25 13.6642 6.25 13.25V0.75C6.25 0.335786 6.58579 0 7 0ZM3.67137 3.40818C3.8582 3.48557 3.98003 3.66789 3.98003 3.87012V10.1301C3.98003 10.3323 3.8582 10.5147 3.67137 10.5921C3.48453 10.6694 3.26947 10.6267 3.12647 10.4837L0.25948 7.61668C0.177865 7.53732 0.112804 7.44252 0.0680896 7.33779C0.0225173 7.23105 -0.000976562 7.11618 -0.000976562 7.00012C-0.000976562 6.88405 0.0225173 6.76919 0.0680896 6.66244C0.112804 6.55771 0.177865 6.46292 0.25948 6.38356L3.12647 3.51656C3.26947 3.37356 3.48453 3.33079 3.67137 3.40818ZM10.3287 3.40818C10.5155 3.33079 10.7306 3.37356 10.8736 3.51656L13.7406 6.38356C13.8222 6.46292 13.8872 6.55771 13.932 6.66244C13.9775 6.76919 14.001 6.88405 14.001 7.00012C14.001 7.11618 13.9775 7.23105 13.932 7.33779C13.8872 7.44252 13.8222 7.53732 13.7406 7.61668L10.8736 10.4837C10.7306 10.6267 10.5155 10.6694 10.3287 10.5921C10.1418 10.5147 10.02 10.3323 10.02 10.1301V3.87012C10.02 3.66789 10.1418 3.48557 10.3287 3.40818Z"
          clip-rule="evenodd"></path>
</svg>
