<svg xmlns="http://www.w3.org/2000/svg" fill="none" viewBox="0 0 14 14">
    <path fill="#000000" fill-rule="evenodd"
          d="M7.28701 0.131301C7.00676 0.0152147 6.68417 0.0793816 6.46967 0.29388L4.88156 1.88199C4.73936 2.02419 4.66023 2.21753 4.66192 2.41863C4.66361 2.61972 4.74599 2.81171 4.89056 2.95149L6.47866 4.48705C6.69509 4.69632 7.01567 4.75589 7.29283 4.63835C7.56999 4.52081 7.75 4.24893 7.75 3.94788V2.9873C10.025 3.34702 11.7645 5.3169 11.7645 7.69305C11.7645 10.3244 9.63135 12.4575 7.00002 12.4575C4.36869 12.4575 2.23558 10.3244 2.23558 7.69305C2.23558 6.63251 2.58121 5.65488 3.1662 4.86372C3.41247 4.53066 3.34211 4.06103 3.00906 3.81476C2.676 3.5685 2.20637 3.63886 1.9601 3.97191C1.19072 5.01244 0.73558 6.30069 0.73558 7.69305C0.73558 11.1528 3.54027 13.9575 7.00002 13.9575C10.4598 13.9575 13.2645 11.1528 13.2645 7.69305C13.2645 4.4871 10.8562 1.84363 7.75 1.47304V0.82421C7.75 0.520863 7.56727 0.247386 7.28701 0.131301ZM5.77982 5.8164C5.77982 5.54026 5.55597 5.3164 5.27982 5.3164C5.00368 5.3164 4.77982 5.54026 4.77982 5.8164C4.77982 6.05847 4.58359 6.25471 4.34152 6.25471H4.02875C3.75261 6.25471 3.52875 6.47856 3.52875 6.75471C3.52875 7.03085 3.75261 7.25471 4.02875 7.25471H4.34152C4.49436 7.25471 4.64163 7.23087 4.77982 7.1867L4.77982 9.06966H4.02875C3.75261 9.06966 3.52875 9.29352 3.52875 9.56966C3.52875 9.8458 3.75261 10.0697 4.02875 10.0697H6.5309C6.80704 10.0697 7.0309 9.8458 7.0309 9.56966C7.0309 9.29352 6.80704 9.06966 6.5309 9.06966H5.77982L5.77982 5.8164ZM7.96912 6.81641C7.96912 6.54027 8.19297 6.31641 8.46912 6.31641H8.97126C9.24741 6.31641 9.47126 6.54027 9.47126 6.81641V8.56964C9.47126 8.84578 9.24741 9.06964 8.97126 9.06964H8.46912C8.19297 9.06964 7.96912 8.84578 7.96912 8.56964V6.81641ZM8.46912 5.31641C7.64069 5.31641 6.96912 5.98799 6.96912 6.81641V8.56964C6.96912 9.39806 7.64069 10.0696 8.46912 10.0696H8.97126C9.79969 10.0696 10.4713 9.39806 10.4713 8.56964V6.81641C10.4713 5.98799 9.79969 5.31641 8.97126 5.31641H8.46912Z"
          clip-rule="evenodd"></path>
</svg>
