<svg xmlns="http://www.w3.org/2000/svg" fill="none" viewBox="0 0 14 14">
    <path fill="#000000" fill-rule="evenodd"
          d="M1.79081 1.49902C1.63065 1.49902 1.50082 1.62885 1.50082 1.78901V5.49902C1.50082 5.91324 1.16504 6.24902 0.750824 6.24902C0.33661 6.24902 0.000823975 5.91324 0.000823975 5.49902V1.78901C0.000823975 0.800426 0.802226 -0.000976562 1.79081 -0.000976562H9.50082C9.91504 -0.000976562 10.2508 0.33481 10.2508 0.749023C10.2508 1.16324 9.91504 1.49902 9.50082 1.49902H1.79081ZM13.9992 4.49902C13.9992 4.08481 13.6634 3.74902 13.2492 3.74902C12.835 3.74902 12.4992 4.08481 12.4992 4.49902V12.2109C12.4992 12.3711 12.3694 12.5009 12.2092 12.5009H8.50082C8.08661 12.5009 7.75082 12.8367 7.75082 13.2509C7.75082 13.6651 8.08661 14.0009 8.50082 14.0009H12.2092C13.1978 14.0009 13.9992 13.1995 13.9992 12.2109V4.49902ZM0.000823975 9.24902C0.000823975 8.28253 0.784326 7.49902 1.75082 7.49902C2.16504 7.49902 2.50082 7.83481 2.50082 8.24902C2.50082 8.66324 2.16504 8.99902 1.75082 8.99902C1.61275 8.99902 1.50082 9.11095 1.50082 9.24902C1.50082 9.66324 1.16504 9.99902 0.750824 9.99902C0.33661 9.99902 0.000823975 9.66324 0.000823975 9.24902ZM0.750824 11.499C1.16504 11.499 1.50082 11.8348 1.50082 12.249C1.50082 12.3871 1.61275 12.499 1.75082 12.499C2.16504 12.499 2.50082 12.8348 2.50082 13.249C2.50082 13.6632 2.16504 13.999 1.75082 13.999C0.784326 13.999 0.000823975 13.2155 0.000823975 12.249C0.000823975 11.8348 0.33661 11.499 0.750824 11.499ZM6.50082 12.249C6.50082 11.8348 6.16504 11.499 5.75082 11.499C5.33661 11.499 5.00082 11.8348 5.00082 12.249C5.00082 12.3871 4.8889 12.499 4.75082 12.499C4.33661 12.499 4.00082 12.8348 4.00082 13.249C4.00082 13.6632 4.33661 13.999 4.75082 13.999C5.71732 13.999 6.50082 13.2155 6.50082 12.249ZM4.00082 8.24902C4.00082 7.83481 4.33661 7.49902 4.75082 7.49902C5.71732 7.49902 6.50082 8.28253 6.50082 9.24902C6.50082 9.66324 6.16504 9.99902 5.75082 9.99902C5.33661 9.99902 5.00082 9.66324 5.00082 9.24902C5.00082 9.11095 4.8889 8.99902 4.75082 8.99902C4.33661 8.99902 4.00082 8.66324 4.00082 8.24902ZM13.7795 1.27937C14.0724 0.986493 14.0724 0.511619 13.7795 0.218714C13.4866 -0.0741905 13.0118 -0.0742092 12.7189 0.218672L8.82329 4.11394L7.8542 3.14496C7.7112 3.00197 7.49615 2.95921 7.30932 3.0366C7.12249 3.11399 7.00067 3.29631 7.00067 3.49854V6.49854C7.00067 6.77468 7.22453 6.99854 7.50067 6.99854H10.501C10.7033 6.99854 10.8856 6.87671 10.963 6.68986C11.0404 6.50302 10.9976 6.28796 10.8546 6.14496L9.88401 5.17454L13.7795 1.27937Z"
          clip-rule="evenodd"></path>
</svg>
