<svg xmlns="http://www.w3.org/2000/svg" fill="none" viewBox="0 0 14 14">
    <path fill="#000000" fill-rule="evenodd"
          d="M5.67939 1.65956C6.08158 1.56048 6.3273 1.15413 6.22823 0.751939C6.12916 0.349748 5.7228 0.104023 5.32061 0.203097C4.72667 0.349407 4.16264 0.571446 3.63948 0.858235C3.27626 1.05735 3.14322 1.5132 3.34233 1.87642C3.54144 2.23964 3.9973 2.37268 4.36052 2.17357C4.77129 1.94839 5.21371 1.77427 5.67939 1.65956ZM2.4505 2.65007C2.78166 2.89887 2.84842 3.36903 2.59962 3.70019C2.34504 4.03903 2.12885 4.40798 1.95731 4.80058C1.79148 5.18014 1.34934 5.3534 0.969772 5.18756C0.590206 5.02172 0.416946 4.57958 0.582786 4.20002C0.801414 3.69963 1.07669 3.23 1.40038 2.79918C1.64918 2.46802 2.11934 2.40126 2.4505 2.65007ZM3.25 6.50018C3.25 6.08596 3.58579 5.75018 4 5.75018H7C7.22784 5.75018 7.44332 5.85374 7.58565 6.03165L9.58565 8.53165C9.84441 8.8551 9.79197 9.32707 9.46852 9.58583C9.14507 9.84458 8.67311 9.79214 8.41435 9.4687L6.63953 7.25018H4C3.58579 7.25018 3.25 6.91439 3.25 6.50018ZM13.5001 11.5007C13.5001 12.6052 12.6047 13.5007 11.5001 13.5007C10.3955 13.5007 9.50009 12.6052 9.50009 11.5007C9.50009 10.3961 10.3955 9.50066 11.5001 9.50066C11.6297 9.50066 11.7564 9.51299 11.8792 9.53654C12.3007 8.72737 12.5008 7.85875 12.5 7.00088C12.4996 6.58666 12.8351 6.25056 13.2493 6.25018C13.6635 6.24979 13.9996 6.58526 14 6.99947C14.0011 8.13887 13.7236 9.29316 13.1413 10.3573C13.3674 10.6814 13.5001 11.0755 13.5001 11.5007ZM1.5 6.99947C1.49961 6.58526 1.16351 6.24979 0.749299 6.25018C0.335086 6.25056 -0.000386536 6.58666 0 7.00088C0.00225776 9.41517 1.25638 11.7658 3.50052 13.0614C4.60367 13.6984 5.81031 14.0013 7.0007 14.0002C7.41492 13.9998 7.75039 13.6637 7.75 13.2495C7.74961 12.8353 7.41351 12.4998 6.9993 12.5002C6.06561 12.501 5.11917 12.2639 4.25052 11.7624C2.4888 10.7453 1.50178 8.90038 1.5 6.99947ZM7.77177 0.751939C7.87084 0.349748 8.2772 0.104023 8.67939 0.203097C9.27333 0.349407 9.83736 0.571446 10.3605 0.858235C10.7237 1.05735 10.8568 1.5132 10.6577 1.87642C10.4586 2.23964 10.0027 2.37268 9.63948 2.17357C9.22871 1.94839 8.78629 1.77427 8.32061 1.65956C7.91842 1.56048 7.6727 1.15413 7.77177 0.751939ZM12.5996 2.79918C12.3508 2.46802 11.8807 2.40126 11.5495 2.65007C11.2183 2.89887 11.1516 3.36903 11.4004 3.70019C11.655 4.03903 11.8712 4.40798 12.0427 4.80058C12.2085 5.18014 12.6507 5.3534 13.0302 5.18756C13.4098 5.02172 13.583 4.57958 13.4172 4.20002C13.1986 3.69963 12.9233 3.23 12.5996 2.79918Z"
          clip-rule="evenodd"></path>
</svg>
