<svg xmlns="http://www.w3.org/2000/svg" fill="none" viewBox="0 0 14 14">
    <path fill="#000000" fill-rule="evenodd"
          d="M6.71299 0.131301C6.99324 0.0152147 7.31583 0.0793816 7.53033 0.29388L9.11844 1.88199C9.26064 2.02419 9.33977 2.21753 9.33808 2.41863C9.33639 2.61972 9.25401 2.81171 9.10944 2.95149L7.52134 4.48705C7.30491 4.69632 6.98433 4.75589 6.70717 4.63835C6.43001 4.52081 6.25 4.24893 6.25 3.94788V2.98731C3.975 3.34703 2.23557 5.31691 2.23557 7.69305C2.23557 10.3244 4.36868 12.4575 7.00001 12.4575C9.63134 12.4575 11.7644 10.3244 11.7644 7.69305C11.7644 6.63251 11.4188 5.65488 10.8338 4.86372C10.5876 4.53066 10.6579 4.06103 10.991 3.81476C11.324 3.5685 11.7937 3.63886 12.0399 3.97191C12.8093 5.01244 13.2644 6.30069 13.2644 7.69305C13.2644 11.1528 10.4598 13.9575 7.00001 13.9575C3.54025 13.9575 0.735565 11.1528 0.735565 7.69305C0.735565 4.48711 3.14384 1.84364 6.25 1.47305V0.82421C6.25 0.520863 6.43273 0.247386 6.71299 0.131301ZM5.77979 5.8164C5.77979 5.54026 5.55594 5.3164 5.27979 5.3164C5.00365 5.3164 4.77979 5.54026 4.77979 5.8164C4.77979 6.05847 4.58356 6.25471 4.34149 6.25471H4.02872C3.75258 6.25471 3.52872 6.47856 3.52872 6.75471C3.52872 7.03085 3.75258 7.25471 4.02872 7.25471H4.34149C4.49433 7.25471 4.6416 7.23087 4.77979 7.1867L4.77979 9.06966H4.02872C3.75258 9.06966 3.52872 9.29352 3.52872 9.56966C3.52872 9.8458 3.75258 10.0697 4.02872 10.0697H6.53087C6.80701 10.0697 7.03087 9.8458 7.03087 9.56966C7.03087 9.29352 6.80701 9.06966 6.53087 9.06966H5.77979L5.77979 5.8164ZM7.96912 6.81641C7.96912 6.54027 8.19297 6.31641 8.46912 6.31641H8.97127C9.24741 6.31641 9.47126 6.54027 9.47126 6.81641V8.56964C9.47126 8.84578 9.24741 9.06964 8.97127 9.06964H8.46912C8.19297 9.06964 7.96912 8.84578 7.96912 8.56964V6.81641ZM8.46912 5.31641C7.64069 5.31641 6.96912 5.98799 6.96912 6.81641V8.56964C6.96912 9.39806 7.64069 10.0696 8.46912 10.0696H8.97127C9.79969 10.0696 10.4713 9.39806 10.4713 8.56964V6.81641C10.4713 5.98799 9.79969 5.31641 8.97127 5.31641H8.46912Z"
          clip-rule="evenodd"></path>
</svg>
