<svg xmlns="http://www.w3.org/2000/svg" viewBox="0 0 14 14" fill="currentColor">
    <path d="M12.78 4 9 .22A.75.75 0 0 0 8.5 0H2.75A1.76 1.76 0 0 0 1 1.75v10.5A1.76 1.76 0 0 0 2.75 14h8.5A1.76 1.76 0 0 0 13 12.25V4.5a.75.75 0 0 0-.22-.5Zm-1.28 8.25a.25.25 0 0 1-.25.25h-8.5a.25.25 0 0 1-.25-.25V1.75a.25.25 0 0 1 .25-.25h5.34a.26.26 0 0 1 .17.07l3.17 3.17a.26.26 0 0 1 .07.17Z"/>
    <path d="M5.35 8a.62.62 0 0 0-.87.17.64.64 0 0 0 .17.83l1.5 1a.64.64 0 0 0 .35.1h.13A.65.65 0 0 0 7 9.84l2.5-4A.63.63 0 0 0 9.33 5a.61.61 0 0 0-.86.2l-2 3.23a.25.25 0 0 1-.16.11.21.21 0 0 1-.19 0Z"/>
</svg>