<svg xmlns="http://www.w3.org/2000/svg" viewBox="0 0 140 140">
    <g transform="matrix(10,0,0,10,0,0)">
        <path d="M2.92879 13.2678L0.719589 11.06C0.259643 10.5982 0.00140381 9.97298 0.00140381 9.3212C0.00140381 8.66943 0.259643 8.0442 0.719589 7.5824L2.40799 5.9024C2.50224 5.79334 2.61794 5.70485 2.74788 5.64245C2.87782 5.58005 3.01922 5.54508 3.16327 5.5397C3.30732 5.53433 3.45093 5.55867 3.58516 5.61121C3.71939 5.66375 3.84136 5.74337 3.94348 5.84511C4.0456 5.94684 4.12568 6.06851 4.17873 6.20254C4.23178 6.33657 4.25666 6.48009 4.25183 6.62416C4.247 6.76822 4.21256 6.90975 4.15065 7.03993C4.08874 7.1701 4.00069 7.28614 3.89199 7.3808L2.21199 9.0678C2.14479 9.13501 2.10704 9.22616 2.10704 9.3212C2.10704 9.41624 2.14479 9.50739 2.21199 9.5746L4.41279 11.7824C4.44026 11.8246 4.47782 11.8592 4.52207 11.8832C4.56632 11.9072 4.61585 11.9198 4.66619 11.9198C4.71652 11.9198 4.76606 11.9072 4.81031 11.8832C4.85456 11.8592 4.89212 11.8246 4.91959 11.7824L6.60799 10.1024C6.8083 9.92796 7.06727 9.83592 7.33274 9.84482C7.59821 9.85373 7.85044 9.96291 8.03861 10.1504C8.22679 10.3378 8.33692 10.5896 8.34682 10.8551C8.35673 11.1205 8.26567 11.3798 8.09199 11.5808L6.41199 13.2678C6.18368 13.4972 5.91229 13.6793 5.61341 13.8035C5.31453 13.9277 4.99406 13.9917 4.67039 13.9917C4.34672 13.9917 4.02624 13.9277 3.72736 13.8035C3.42848 13.6793 3.1571 13.4972 2.92879 13.2678Z"></path>
        <path
                d="M10.108 8.08079C10.0104 7.98328 9.93304 7.8675 9.88023 7.74007C9.82742 7.61263 9.80024 7.47604 9.80024 7.33809C9.80024 7.20015 9.82742 7.06356 9.88023 6.93612C9.93304 6.80869 10.0104 6.69291 10.108 6.59539L11.795 4.90839C11.8623 4.84095 11.9001 4.74956 11.9001 4.65429C11.9001 4.55903 11.8623 4.46764 11.795 4.40019L9.58721 2.19239C9.55952 2.15052 9.52188 2.11616 9.47766 2.09239C9.43344 2.06862 9.38402 2.05617 9.33381 2.05617C9.28361 2.05617 9.23418 2.06862 9.18996 2.09239C9.14574 2.11616 9.1081 2.15052 9.08041 2.19239L7.39201 3.88079C7.19389 4.07197 6.92861 4.17768 6.6533 4.17516C6.37799 4.17264 6.11469 4.06209 5.9201 3.86731C5.72552 3.67254 5.61521 3.40914 5.61295 3.13383C5.61069 2.85852 5.71665 2.59334 5.90801 2.39539L7.59501 0.708395C8.0636 0.262036 8.68595 0.0130615 9.33311 0.0130615C9.98027 0.0130615 10.6026 0.262036 11.0712 0.708395L13.2804 2.91619C13.7403 3.37776 13.9985 4.00275 13.9985 4.65429C13.9985 5.30584 13.7403 5.93083 13.2804 6.3924L11.592 8.08079C11.4946 8.17832 11.379 8.2557 11.2516 8.30849C11.1243 8.36128 10.9878 8.38845 10.85 8.38845C10.7122 8.38845 10.5757 8.36128 10.4484 8.30849C10.3211 8.2557 10.2054 8.17832 10.108 8.08079Z"></path>
        <path
                d="M5.20801 8.78079C5.11044 8.68328 5.03304 8.5675 4.98023 8.44007C4.92742 8.31263 4.90024 8.17604 4.90024 8.03809C4.90024 7.90015 4.92742 7.76356 4.98023 7.63612C5.03304 7.50868 5.11044 7.3929 5.20801 7.29539L7.30801 5.19539C7.50614 5.00422 7.77142 4.89851 8.04673 4.90103C8.32203 4.90355 8.58533 5.0141 8.77992 5.20887C8.97451 5.40365 9.08481 5.66705 9.08707 5.94236C9.08934 6.21767 8.98338 6.48285 8.79201 6.68079L6.69201 8.78079C6.59462 8.87832 6.47896 8.9557 6.35164 9.00849C6.22432 9.06128 6.08784 9.08845 5.95001 9.08845C5.81218 9.08845 5.67571 9.06128 5.54839 9.00849C5.42107 8.9557 5.3054 8.87832 5.20801 8.78079Z"></path>
    </g>
</svg>
