<svg xmlns="http://www.w3.org/2000/svg" fill="none" viewBox="0 0 14 14">
    <path fill="#000000" fill-rule="evenodd"
          d="M0.500015 0.75C0.297783 0.75 0.115465 0.871821 0.0380748 1.05866C-0.0393156 1.2455 0.00346223 1.46055 0.146461 1.60355L6.29644 7.75357L6.30001 7.75707C6.48694 7.9403 6.73826 8.04293 7.00001 8.04293C7.26177 8.04293 7.5131 7.94032 7.70003 7.75709L13.8536 1.60355C13.9966 1.46055 14.0393 1.2455 13.962 1.05866C13.8846 0.871821 13.7022 0.75 13.5 0.75H0.500015ZM5.42497 8.64973L5.41249 8.6375L2.73501 5.95996H0.500015C0.29771 5.95996 0.11534 6.08187 0.0379971 6.26881C-0.0393456 6.45574 0.00358138 6.67087 0.146749 6.8138L6.29201 12.9491C6.38236 13.0435 6.49071 13.1189 6.61068 13.1708C6.73359 13.224 6.86609 13.2515 7.00001 13.2515C7.13394 13.2515 7.26644 13.224 7.38935 13.1708C7.50932 13.1189 7.61767 13.0435 7.70802 12.9491L13.8533 6.8138C13.9964 6.67087 14.0394 6.45574 13.962 6.26881C13.8847 6.08187 13.7023 5.95996 13.5 5.95996H11.2649L8.57505 8.64981C8.1544 9.06213 7.58885 9.29293 6.99999 9.29293C6.41105 9.29293 5.84556 9.06199 5.42497 8.64973Z"
          clip-rule="evenodd"></path>
</svg>
