<svg xmlns="http://www.w3.org/2000/svg" fill="none" viewBox="0 0 14 14">
    <path fill="#000000" fill-rule="evenodd"
          d="M0.500015 13.0981C0.297783 13.0981 0.115465 12.9763 0.0380748 12.7895C-0.0393156 12.6026 0.00346223 12.3876 0.146461 12.2446L6.29644 6.09457L6.30001 6.09107C6.48694 5.90785 6.73826 5.80522 7.00001 5.80522C7.26177 5.80522 7.5131 5.90783 7.70003 6.09106L13.8536 12.2446C13.9966 12.3876 14.0393 12.6026 13.962 12.7895C13.8846 12.9763 13.7022 13.0981 13.5 13.0981H0.500015ZM5.42497 5.19841L5.41249 5.21065L2.73501 7.88818H0.500015C0.29771 7.88818 0.11534 7.76627 0.0379971 7.57934C-0.0393456 7.3924 0.00358138 7.17728 0.146749 7.03434L6.29201 0.899071C6.38236 0.804666 6.49071 0.729259 6.61068 0.677322C6.73359 0.624115 6.86609 0.596665 7.00001 0.596665C7.13394 0.596665 7.26644 0.624115 7.38935 0.677322C7.50932 0.729259 7.61767 0.804666 7.70802 0.899071L13.8533 7.03434C13.9964 7.17728 14.0394 7.3924 13.962 7.57934C13.8847 7.76627 13.7023 7.88818 13.5 7.88818H11.2649L8.57505 5.19833C8.1544 4.78601 7.58885 4.55522 6.99999 4.55522C6.41105 4.55522 5.84556 4.78615 5.42497 5.19841Z"
          clip-rule="evenodd"></path>
</svg>
