<svg xmlns="http://www.w3.org/2000/svg" fill="none" viewBox="0 0 14 14">
    <path fill="#000000" fill-rule="evenodd"
          d="M8.09003 0.0844444C7.6808 0.0204002 7.29713 0.300231 7.23309 0.709463C7.16904 1.1187 7.44887 1.50236 7.85811 1.56641C10.4879 1.97797 12.5 4.25469 12.5 6.99996C12.5 10.0375 10.0375 12.5 6.99997 12.5C4.6786 12.5 2.69136 11.0616 1.88441 9.02466C1.73185 8.63956 1.29599 8.45106 0.910896 8.60362C0.525801 8.75618 0.337297 9.19204 0.489859 9.57713C1.5157 12.1665 4.04281 14 6.99997 14C10.866 14 14 10.866 14 6.99996C14 3.50439 11.4385 0.608473 8.09003 0.0844444ZM6.16381 0.661431C6.26706 1.06257 6.02557 1.47146 5.62443 1.5747C5.37182 1.63972 5.12624 1.72225 4.88902 1.82094C4.50659 1.98005 4.06758 1.79901 3.90847 1.41657C3.74936 1.03413 3.9304 0.595125 4.31284 0.436017C4.61525 0.310202 4.92841 0.204957 5.25054 0.122047C5.65168 0.0188006 6.06057 0.260291 6.16381 0.661431ZM3.18519 1.89415C3.4737 2.19136 3.46666 2.66618 3.16945 2.9547C2.79826 3.31504 2.47784 3.72709 2.21985 4.17896C2.01447 4.53868 1.55638 4.66379 1.19667 4.45842C0.836952 4.25304 0.711835 3.79495 0.91721 3.43523C1.24561 2.86004 1.65306 2.33621 2.12465 1.87841C2.42185 1.5899 2.89667 1.59695 3.18519 1.89415ZM0.916166 5.27863C1.32633 5.33644 1.61196 5.7158 1.55415 6.12596C1.51849 6.37895 1.5 6.63783 1.5 6.90145C1.5 7.31566 1.16421 7.65145 0.75 7.65145C0.335786 7.65145 0 7.31566 0 6.90145C0 6.56758 0.0234281 6.23875 0.0688322 5.91661C0.126642 5.50645 0.506007 5.22082 0.916166 5.27863ZM7.75 4.99999C7.75 4.58577 7.41421 4.24999 7 4.24999C6.58579 4.24999 6.25 4.58577 6.25 4.99999V6.24999H5C4.58579 6.24999 4.25 6.58577 4.25 6.99999C4.25 7.4142 4.58579 7.74999 5 7.74999H6.25V8.99999C6.25 9.4142 6.58579 9.74999 7 9.74999C7.41421 9.74999 7.75 9.4142 7.75 8.99999V7.74999H9C9.41421 7.74999 9.75 7.4142 9.75 6.99999C9.75 6.58577 9.41421 6.24999 9 6.24999H7.75V4.99999Z"
          clip-rule="evenodd"></path>
</svg>
