<svg xmlns="http://www.w3.org/2000/svg" viewBox="0 0 24 24">
    <g>
        <path d="M12,2.61a7.26,7.26,0,0,0-6.15,11.1.75.75,0,1,0,1.27-.8A5.75,5.75,0,1,1,17.75,9.86a5.68,5.68,0,0,1-.88,3.06.75.75,0,1,0,1.27.8A7.25,7.25,0,0,0,12,2.61Z"
              fill="#000000"></path>
        <path d="M16.42,15.29l-3.74-1.12a.25.25,0,0,1-.18-.24V9.36a1,1,0,0,0-2,0v7.07a.25.25,0,0,1-.46.14c-1.49-2.14-3.85-1.45-2.76.22l2.91,4.37a.5.5,0,0,0,.42.22H16a.51.51,0,0,0,.5-.4c.21-1.19.77-4.17.77-4.17A1.28,1.28,0,0,0,16.42,15.29Z"
              fill="#000000"></path>
    </g>
</svg>
