<svg xmlns="http://www.w3.org/2000/svg" fill="none" viewBox="0 0 14 14">
    <path fill="#000000" fill-rule="evenodd"
          d="M4.30359 2.20751L4.86091 3.13637C5.01698 3.39649 5.001 3.72501 4.8204 3.96874C4.63981 4.21247 4.33018 4.32342 4.03589 4.24985L1.8181 3.6954C1.41625 3.59494 1.17193 3.18774 1.27239 2.78589L1.82684 0.568098C1.90041 0.273809 2.14402 0.0528159 2.44406 0.0081681C2.7441 -0.0364796 3.0415 0.104011 3.19757 0.364128L3.53162 0.920877C6.87453 -0.986865 11.1345 0.163329 13.0613 3.50052C14.994 6.84807 13.847 11.1286 10.4995 13.0613C7.15193 14.994 2.87143 13.847 0.938725 10.4995C0.0526508 8.96475 -0.18607 7.23205 0.138067 5.62147C0.21979 5.2154 0.615226 4.95246 1.0213 5.03418C1.42737 5.11591 1.69031 5.51134 1.60858 5.91741C1.3537 7.18387 1.54113 8.54287 2.23776 9.74948C3.75626 12.3796 7.11937 13.2807 9.74948 11.7622C12.3796 10.2437 13.2807 6.88063 11.7622 4.25052C10.2539 1.63807 6.92571 0.731447 4.30359 2.20751ZM7 2.75C7.41421 2.75 7.75 3.08579 7.75 3.5V7.5C7.75 7.76345 7.61178 8.00758 7.38587 8.14312L4.88587 9.64312C4.53069 9.85623 4.06999 9.74106 3.85688 9.38587C3.64377 9.03069 3.75894 8.56999 4.11413 8.35688L6.25 7.07536V3.5C6.25 3.08579 6.58579 2.75 7 2.75Z"
          clip-rule="evenodd"></path>
</svg>
