<svg xmlns="http://www.w3.org/2000/svg" fill="none" viewBox="0 0 14 14">
    <path fill="#000000" fill-rule="evenodd"
          d="M5.04132 0.67243C5.88837 0.142589 6.89147 -0.0808492 7.88332 0.0393757C8.87518 0.159601 9.79584 0.616222 10.4918 1.33309C11.1431 2.00403 11.5608 2.86497 11.6861 3.78825C12.377 3.99583 12.9806 4.42953 13.398 5.02254C13.8531 5.66895 14.0553 6.45978 13.9664 7.24527C13.8775 8.03077 13.5037 8.7564 12.9157 9.28477C12.42 9.73017 11.8012 10.0093 11.1455 10.0889C11.2249 9.974 11.2929 9.84972 11.3478 9.71727C11.6573 8.96992 11.4862 8.10969 10.9142 7.53769L8.91421 5.53769C8.13317 4.75664 6.86684 4.75664 6.08579 5.53769L4.08579 7.53769C3.51379 8.10969 3.34268 8.96992 3.65224 9.71727C3.7114 9.8601 3.7859 9.99343 3.87334 10.1157C2.92371 10.1588 1.99276 9.83398 1.27551 9.20699C0.53818 8.56245 0.0870937 7.65139 0.021486 6.67426C-0.0441218 5.69712 0.281123 4.73394 0.925672 3.99661C1.24482 3.63152 1.63275 3.33287 2.06732 3.1177C2.45459 2.92596 2.87213 2.80386 3.30086 2.75656C3.64418 1.89628 4.253 1.16553 5.04132 0.67243ZM7.53186 14C6.97958 14 6.53186 13.5523 6.53186 13V9.75H5.53186C5.22851 9.75 4.95504 9.56727 4.83895 9.28701C4.72287 9.00676 4.78703 8.68417 5.00153 8.46967L7.00153 6.46967C7.29442 6.17678 7.7693 6.17678 8.06219 6.46967L10.0622 8.46967C10.2767 8.68417 10.3409 9.00676 10.2248 9.28701C10.1087 9.56727 9.83521 9.75 9.53186 9.75H8.53186V13C8.53186 13.5523 8.08415 14 7.53186 14Z"
          clip-rule="evenodd"></path>
</svg>
